<?xml version="1.0" encoding="UTF-8" standalone="no"?><svg xmlns="http://www.w3.org/2000/svg" xmlns:xlink="http://www.w3.org/1999/xlink" clip-rule="evenodd" stroke-miterlimit="4.00" viewBox="0 0 1024 768"><desc>SVG generated by Keynote</desc><defs></defs><g transform="matrix(1.00, 0.00, -0.00, -1.00, 0.0, 768.0)"><g><clipPath id="clip-90"><path d="M 0.0 768.0 L 1024.0 768.0 L 1024.0 0.0 L 0.0 0.0 Z M 0.0 768.0 "></path></clipPath><g clip-path="url(#clip-90)"><image xlink:href="../../894F5F26-260D-4C2B-B13C-2220CDBFE361/assets/D3CB8578D364082F6943B53F933CCC32.jpeg" width="1024.00" height="768.00" transform="matrix(1.00, 0.00, -0.00, -1.00, 0.0, 768.0)"></image></g></g><g><clipPath id="clip-91"><path d="M 524.0 372.0 L 981.0 372.0 L 981.0 40.0 L 524.0 40.0 Z M 524.0 372.0 "></path></clipPath><g clip-path="url(#clip-91)"><g><clipPath id="clip-92"><path d="M 777.3 397.1 C 776.1 397.1 770.7 394.0 765.3 390.3 C 760.0 386.6 747.5 377.9 737.5 371.1 C 727.6 364.4 716.3 356.6 712.4 353.8 C 708.5 351.1 697.2 343.3 687.3 336.6 C 662.0 319.3 643.3 306.4 615.0 286.9 C 589.2 269.0 568.3 254.8 540.9 236.2 L 524.0 224.9 L 524.0 204.8 L 536.1 193.5 C 552.6 178.2 594.2 139.5 618.2 117.3 C 629.0 107.2 643.1 94.1 649.6 88.0 C 656.1 82.0 669.9 69.2 680.2 59.7 C 707.2 34.9 720.4 22.5 724.1 18.6 L 727.3 15.0 L 854.2 15.0 L 981.0 15.0 L 981.0 157.0 L 981.0 215.4 L 981.0 299.0 L 960.6 308.8 C 949.4 314.2 923.1 327.0 902.1 337.2 C 881.1 347.5 845.0 365.1 821.7 376.5 C 798.5 387.8 778.5 397.1 777.3 397.1 Z M 777.3 397.1 "></path></clipPath><g clip-path="url(#clip-92)"><image xlink:href="../../47856145-D224-4660-A5D4-45886CB190BB/assets/5E72EA4730A9165F2D213A68A1F444B4.png" width="458.00" height="401.00" transform="matrix(1.00, 0.00, -0.00, -1.00, 524.0, 416.0)"></image></g></g></g></g><g><clipPath id="clip-93"><path d="M 525.0 728.0 L 982.0 728.0 L 982.0 396.0 L 525.0 396.0 Z M 524.8 728.0 "></path></clipPath><g clip-path="url(#clip-93)"><g><clipPath id="clip-94"><path d="M 821.4 411.8 C 819.2 419.8 806.3 435.3 796.6 441.5 C 788.4 446.7 785.7 447.5 775.2 447.0 L 763.3 446.0 L 762.1 437.6 C 761.5 432.9 759.7 428.2 758.1 427.2 C 753.3 424.2 735.7 425.1 728.3 428.8 C 721.8 432.1 721.4 432.9 722.0 440.6 C 722.5 447.8 721.8 449.4 716.7 453.0 C 711.9 456.5 709.8 456.8 704.2 455.2 C 693.8 452.1 676.2 455.9 671.9 462.0 C 671.1 463.3 670.9 467.5 671.6 471.5 C 672.7 478.4 672.3 479.0 664.7 483.3 C 656.7 487.8 656.7 487.9 657.8 497.0 C 658.5 502.0 660.1 507.5 661.5 509.1 C 662.8 510.8 664.4 514.6 664.9 517.7 C 666.7 527.6 652.3 532.7 640.6 526.2 C 635.8 523.6 635.2 524.0 624.1 536.1 C 616.5 544.4 609.5 549.9 603.9 552.0 C 595.6 555.2 595.1 555.1 588.0 551.0 L 581.0 546.6 L 581.0 555.3 C 581.1 571.0 586.3 595.4 592.5 608.0 C 600.0 623.2 608.4 631.0 631.1 643.7 C 640.8 649.2 649.8 655.7 651.1 658.3 C 652.4 660.9 661.1 667.3 670.5 672.6 L 687.0 682.2 L 688.0 695.7 L 689.0 709.2 L 698.5 714.3 L 707.6 719.4 L 721.0 711.9 L 734.0 704.5 L 734.0 673.6 C 734.0 647.9 734.8 642.5 737.3 641.5 C 739.0 640.9 740.3 639.3 740.3 637.9 C 740.3 633.1 749.5 626.6 754.5 627.8 C 758.9 628.9 759.5 628.1 762.3 616.5 L 765.2 603.9 L 777.9 599.4 C 784.8 596.9 796.6 594.3 804.1 593.7 L 817.7 592.4 L 824.4 581.6 C 828.1 575.7 832.5 569.0 834.3 566.6 L 837.5 562.3 L 852.2 571.2 L 867.0 580.0 L 868.0 593.2 L 868.0 606.3 L 877.6 611.4 L 887.0 616.5 L 899.5 609.3 L 912.0 602.0 L 912.0 551.6 L 912.0 501.1 L 903.3 496.9 L 894.6 492.7 L 884.0 498.8 C 873.9 504.5 873.0 504.7 867.6 501.9 C 863.5 499.8 862.2 497.9 863.0 495.4 C 866.2 485.1 870.0 459.3 870.0 447.3 L 870.0 433.7 L 847.7 421.0 C 835.4 414.1 824.7 408.1 824.0 407.8 C 823.2 407.5 822.0 409.3 821.4 411.8 "></path></clipPath><g clip-path="url(#clip-94)"><image xlink:href="../../47856145-D224-4660-A5D4-45886CB190BB/assets/2FCF5A6998773CC3CE79D0F75DE78E27.png" width="457.00" height="352.00" transform="matrix(1.00, 0.00, -0.00, -1.01, 525.0, 739.0)"></image></g></g></g></g><g><clipPath id="clip-95"><path d="M 42.0 728.0 L 499.0 728.0 L 499.0 40.0 L 42.0 40.0 Z M 42.0 728.0 "></path></clipPath><g clip-path="url(#clip-95)"><g><clipPath id="clip-96"><path d="M 179.0 728.0 L 179.0 717.3 C 179.0 704.6 179.7 705.4 158.2 692.8 L 143.0 683.9 L 142.0 556.8 C 141.8 486.9 142.0 405.4 142.0 375.6 L 142.0 321.5 L 125.5 311.9 C 116.5 306.7 56.7 272.1 -7.4 235.1 L -124.0 167.8 L -124.0 103.9 L -125.0 44.3 L -125.0 40.0 L 326.1 40.0 L 624.0 40.0 L 625.0 141.1 L 625.0 242.2 L 645.5 254.2 L 666.0 266.0 L 666.0 402.9 L 666.0 539.9 L 602.4 576.5 C 567.5 596.6 538.3 613.1 537.5 613.1 C 535.4 613.1 499.7 592.7 495.9 589.3 C 492.7 586.4 492.6 586.5 485.0 598.5 C 464.9 630.2 439.5 648.5 415.8 648.4 C 406.6 648.4 403.7 647.7 398.4 644.3 C 394.8 642.1 383.5 635.5 373.3 629.8 C 360.0 622.3 354.2 619.8 353.0 621.0 C 351.9 622.2 351.4 639.5 351.0 671.9 L 350.0 721.0 L 346.0 724.5 L 341.9 728.0 L 179.0 728.0 Z M 179.0 728.0 "></path></clipPath><g clip-path="url(#clip-96)"><image xlink:href="../../47856145-D224-4660-A5D4-45886CB190BB/assets/ED82EA73536EDD393AC9B8C003FB01B2.png" width="707.00" height="539.00" transform="matrix(1.28, 0.00, -0.00, -1.28, -125.0, 728.0)"></image></g></g></g></g></g></svg>