<?xml version="1.0" encoding="UTF-8" standalone="no"?><svg xmlns="http://www.w3.org/2000/svg" xmlns:xlink="http://www.w3.org/1999/xlink" clip-rule="evenodd" stroke-miterlimit="4.00" viewBox="0 0 403 52"><desc>SVG generated by Keynote</desc><defs></defs><g transform="matrix(1.00, 0.00, -0.00, -1.00, 0.0, 52.0)"><g><clipPath id="clip-4"><path d="M 206.5 12.8 L 402.8 12.8 L 402.8 50.9 L 206.5 50.9 Z M 206.5 12.8 "></path></clipPath><g clip-path="url(#clip-4)"><image xlink:href="134BF10BE78ACE990DB0E06CFE15961E.png" width="197.00" height="38.00" transform="matrix(0.99, 0.00, -0.00, -1.00, 207.0, 51.0)"></image></g></g><g><clipPath id="clip-5"><path d="M -4.5 -4.9 L 216.5 -4.9 L 216.5 56.6 L -4.5 56.6 Z M -4.5 -4.9 "></path></clipPath><g clip-path="url(#clip-5)"><text xml:space="preserve" font-family="GillSans-Light" font-size="36.0" fill="#525252" transform="matrix(1.00, 0.00, -0.00, -1.00, 6.7, 13.9)">C</text><text xml:space="preserve" font-family="GillSans-Light" font-size="36.0" fill="#525252" transform="matrix(1.00, 0.00, -0.00, -1.00, 31.0, 13.9)">h</text><text xml:space="preserve" font-family="GillSans-Light" font-size="36.0" fill="#525252" transform="matrix(1.00, 0.00, -0.00, -1.00, 48.7, 13.9)">a</text><text xml:space="preserve" font-family="GillSans-Light" font-size="36.0" fill="#525252" transform="matrix(1.00, 0.00, -0.00, -1.00, 64.1, 13.9)">l</text><text xml:space="preserve" font-family="GillSans-Light" font-size="36.0" fill="#525252" transform="matrix(1.00, 0.00, -0.00, -1.00, 70.8, 13.9)">l</text><text xml:space="preserve" font-family="GillSans-Light" font-size="36.0" fill="#525252" transform="matrix(1.00, 0.00, -0.00, -1.00, 77.6, 13.9)">e</text><text xml:space="preserve" font-family="GillSans-Light" font-size="36.0" fill="#525252" transform="matrix(1.00, 0.00, -0.00, -1.00, 94.8, 13.9)">n</text><text xml:space="preserve" font-family="GillSans-Light" font-size="36.0" fill="#525252" transform="matrix(1.00, 0.00, -0.00, -1.00, 112.5, 13.9)">g</text><text xml:space="preserve" font-family="GillSans-Light" font-size="36.0" fill="#525252" transform="matrix(1.00, 0.00, -0.00, -1.00, 127.8, 13.9)">e</text><text xml:space="preserve" font-family="GillSans-Light" font-size="36.0" fill="#525252" transform="matrix(1.00, 0.00, -0.00, -1.00, 145.1, 13.9)">d</text><text xml:space="preserve" font-family="GillSans-Light" font-size="36.0" fill="#525252" transform="matrix(1.00, 0.00, -0.00, -1.00, 163.4, 13.9)"> </text><text xml:space="preserve" font-family="GillSans-Light" font-size="36.0" fill="#525252" transform="matrix(1.00, 0.00, -0.00, -1.00, 173.4, 13.9)">b</text><text xml:space="preserve" font-family="GillSans-Light" font-size="36.0" fill="#525252" transform="matrix(1.00, 0.00, -0.00, -1.00, 191.2, 13.9)">y</text></g></g></g></svg>