<?xml version="1.0" encoding="UTF-8" standalone="no"?><svg xmlns="http://www.w3.org/2000/svg" xmlns:xlink="http://www.w3.org/1999/xlink" clip-rule="evenodd" stroke-miterlimit="4.00" viewBox="0 0 225 192"><desc>SVG generated by Keynote</desc><defs></defs><g transform="matrix(1.00, 0.00, -0.00, -1.00, 0.0, 192.0)"><image xlink:href="../../293415CD-D1BA-41BB-8703-BAEDA9FFCE27/assets/66948079D8A93F345123E55DB5FF3D13.png" width="223.00" height="169.00" transform="matrix(1.00, 0.00, -0.00, -1.00, 1.2, 171.3)" opacity="0.50"></image><g><clipPath id="clip-17"><path d="M 6.0 176.0 L 219.0 176.0 L 219.0 16.0 L 6.0 16.0 Z M 6.2 175.8 "></path></clipPath><g clip-path="url(#clip-17)"><g><clipPath id="clip-18"><path d="M 105.6 149.0 C 105.5 149.0 105.3 148.7 105.3 148.4 C 104.7 146.0 100.4 131.3 100.2 131.0 C 100.0 130.9 99.2 130.9 98.0 131.1 C 96.9 131.3 94.1 131.7 91.8 132.1 C 89.5 132.5 85.9 133.2 83.9 133.7 C 81.9 134.3 79.4 134.9 78.2 135.2 C 77.1 135.5 75.4 136.0 74.6 136.3 C 66.4 139.3 62.9 140.7 58.0 143.0 C 54.9 144.5 52.3 145.7 52.1 145.7 C 51.1 145.3 42.0 137.8 38.6 134.5 C 34.4 130.5 27.8 123.0 24.9 118.9 C 22.1 114.9 19.6 111.1 18.9 109.9 C 14.3 101.7 10.4 93.2 8.6 87.6 C 8.1 86.0 7.4 83.6 7.0 82.3 C 6.0 79.2 5.2 76.0 4.7 72.7 C 4.4 71.3 4.1 69.4 3.9 68.5 C 3.5 66.9 3.3 64.8 2.6 57.2 C 2.5 55.2 2.0 51.1 2.0 48.2 L 2.0 42.8 L 3.9 44.8 C 5.7 47.6 9.4 51.4 12.1 53.3 C 21.9 60.2 35.3 60.4 45.3 53.9 C 46.6 53.1 48.6 51.5 49.9 50.4 C 51.1 49.2 52.2 48.3 52.3 48.3 C 52.4 48.3 53.4 49.4 54.4 50.7 C 56.9 53.8 60.8 57.3 64.4 59.4 C 67.2 61.1 72.6 63.3 73.3 63.1 C 73.6 63.0 74.0 60.6 74.0 51.3 L 74.0 40.0 L 114.5 40.0 L 155.0 40.0 L 155.0 51.2 C 155.0 57.6 155.6 62.9 155.7 63.0 C 156.1 63.4 161.5 61.2 164.4 59.5 C 168.5 57.1 171.9 54.1 174.9 50.3 L 176.7 48.0 L 178.8 50.0 C 184.5 55.6 191.9 58.6 200.1 58.6 C 210.0 58.6 219.4 53.4 225.0 45.1 L 226.0 42.8 L 226.0 47.8 C 226.1 54.3 226.6 55.8 225.9 62.0 C 225.4 66.8 223.9 75.8 223.1 78.6 C 221.1 85.6 219.4 90.7 218.2 93.4 C 217.9 94.1 217.0 96.1 216.3 97.8 C 213.9 103.6 208.2 113.3 202.8 120.7 C 198.8 126.1 189.8 135.6 185.0 139.4 C 179.4 143.9 176.9 145.8 176.7 145.8 C 176.6 145.8 174.6 144.8 172.3 143.7 C 170.0 142.6 167.3 141.3 166.4 140.9 C 165.0 140.2 160.4 138.4 154.8 136.5 C 152.6 135.7 141.0 132.6 139.4 132.4 C 138.8 132.3 136.2 131.9 133.7 131.5 C 129.6 130.9 129.1 130.8 128.8 131.2 C 128.6 131.4 128.2 132.8 127.7 134.3 C 127.3 135.8 126.6 138.1 126.2 139.5 C 125.8 140.9 125.1 143.5 124.6 145.2 C 124.1 146.9 123.6 148.6 123.5 148.8 C 123.4 149.2 123.0 148.4 122.2 146.1 C 121.5 144.3 120.8 142.7 120.6 142.5 C 120.4 142.3 118.1 142.0 114.3 142.0 L 108.2 142.0 L 107.0 145.7 C 106.3 147.5 105.7 149.0 105.6 149.0 Z M 197.3 105.6 C 198.4 105.6 199.5 105.0 200.5 104.1 C 201.8 102.7 202.3 101.2 201.8 99.7 C 201.5 98.4 200.2 96.9 199.0 96.3 C 197.1 95.3 194.3 96.3 193.0 98.5 C 192.8 99.0 192.6 99.5 192.5 99.9 C 192.4 100.0 192.4 100.1 192.4 100.2 C 192.2 101.7 192.7 103.1 194.0 104.3 C 195.1 105.2 196.2 105.6 197.3 105.6 Z M 31.8 105.4 C 32.0 105.4 32.3 105.4 32.5 105.3 C 33.9 104.9 35.5 103.8 36.0 102.9 C 36.7 101.7 36.3 98.7 35.4 97.7 C 35.1 97.3 34.3 96.8 33.7 96.5 C 31.6 95.5 29.2 96.2 27.9 98.2 C 27.1 99.4 27.0 101.3 27.8 103.0 C 28.2 103.9 28.5 104.3 29.8 104.9 C 30.8 105.4 31.2 105.5 31.8 105.4 Z M 82.4 64.5 C 86.3 64.6 87.2 64.5 90.2 63.9 C 94.4 63.1 98.7 61.4 102.1 59.5 C 106.0 57.2 106.1 57.9 106.0 52.7 L 106.0 48.0 L 91.5 48.0 C 83.8 48.0 77.4 48.1 77.3 48.2 C 77.2 48.3 77.2 51.8 77.2 56.0 C 77.2 62.8 77.2 63.7 77.6 64.0 C 77.9 64.3 79.2 64.4 82.4 64.5 Z M 145.6 64.4 C 148.4 64.4 150.9 64.3 151.2 64.2 C 151.7 64.0 152.1 63.5 152.0 56.1 L 152.0 48.0 L 137.7 48.0 C 130.1 48.0 123.8 48.1 123.7 48.2 C 123.6 48.3 124.0 50.4 124.0 52.9 L 124.0 57.4 L 126.7 59.4 C 128.5 60.4 130.1 61.3 130.2 61.3 C 130.3 61.3 131.5 61.7 132.9 62.3 C 137.6 64.0 139.8 64.4 145.6 64.4 Z M 145.6 64.4 "></path></clipPath><g clip-path="url(#clip-18)"><image xlink:href="../../293415CD-D1BA-41BB-8703-BAEDA9FFCE27/assets/8D27DEC37080341FE6EC2BEB6643C844.png" width="265.00" height="159.00" transform="matrix(1.00, 0.00, -0.00, -1.01, -20.0, 176.0)"></image></g></g></g></g></g></svg>