<?xml version="1.0" encoding="UTF-8" standalone="no"?><svg xmlns="http://www.w3.org/2000/svg" xmlns:xlink="http://www.w3.org/1999/xlink" clip-rule="evenodd" stroke-miterlimit="4.00" viewBox="0 0 1024 768"><desc>SVG generated by Keynote</desc><defs></defs><g transform="matrix(1.00, 0.00, -0.00, -1.00, 0.0, 768.0)"><g><clipPath id="clip-56"><path d="M 0.0 768.0 L 1024.0 768.0 L 1024.0 0.0 L 0.0 0.0 Z M 0.0 768.0 "></path></clipPath><g clip-path="url(#clip-56)"><image xlink:href="../../894F5F26-260D-4C2B-B13C-2220CDBFE361/assets/D3CB8578D364082F6943B53F933CCC32.jpeg" width="1024.00" height="768.00" transform="matrix(1.00, 0.00, -0.00, -1.00, 0.0, 768.0)"></image></g></g><image xlink:href="../../293415CD-D1BA-41BB-8703-BAEDA9FFCE27/assets/00FBB2D96C50AB1911D2329DE29BFD19.png" width="1012.00" height="150.00" transform="matrix(0.30, 0.00, -0.00, -0.30, -26.4, 292.7)" opacity="0.75"></image><g><clipPath id="clip-57"><path d="M 10.0 488.0 L 241.0 488.0 L 241.0 270.0 L 10.0 270.0 Z M 9.6 487.7 "></path></clipPath><g clip-path="url(#clip-57)"><g><clipPath id="clip-58"><path d="M 201.8 487.7 C 201.7 487.7 200.7 487.6 199.6 487.6 C 197.8 487.6 197.6 487.6 197.1 486.3 L 196.5 485.0 L 190.4 485.0 C 185.4 484.9 184.3 484.9 184.1 485.4 C 183.9 485.9 183.4 485.9 181.8 485.8 C 180.7 485.6 179.6 485.3 179.3 485.0 C 178.9 484.4 177.7 484.3 166.6 483.2 C 161.8 482.8 155.3 482.1 152.0 481.7 C 148.8 481.2 144.4 480.7 142.3 480.4 C 140.3 480.2 137.3 479.6 135.7 479.0 C 134.2 478.5 131.9 478.0 130.5 477.8 C 128.1 477.5 127.6 477.2 127.6 475.9 C 127.6 475.5 126.2 473.8 124.6 472.3 C 122.5 470.2 120.7 467.8 118.0 463.5 C 115.7 459.9 114.1 457.7 113.9 458.0 C 113.7 458.2 114.2 461.3 115.2 465.9 C 117.5 476.6 118.4 481.6 118.2 482.0 C 117.8 482.7 114.2 483.6 112.3 483.6 C 109.7 483.6 103.6 483.0 98.5 482.2 C 95.7 481.7 94.2 481.3 93.7 480.8 C 93.0 480.1 92.4 477.1 86.5 447.0 C 82.7 427.1 78.4 404.4 76.6 393.3 C 76.0 389.9 75.4 387.0 75.3 386.8 C 75.2 386.6 74.7 386.5 74.2 386.6 C 73.7 386.7 72.3 386.9 71.1 387.0 C 69.0 387.3 68.8 387.2 68.3 386.4 C 68.1 385.9 66.7 377.8 65.4 368.2 C 64.0 358.7 62.8 350.8 62.6 350.5 C 62.4 350.2 61.4 350.5 59.7 351.3 C 57.6 352.3 56.1 352.6 53.4 352.8 C 51.5 352.9 49.8 352.9 49.7 352.7 C 49.6 352.6 49.2 352.6 48.8 352.8 C 47.7 353.4 40.9 353.8 40.6 353.3 C 40.4 353.0 39.9 353.0 38.8 353.4 C 38.0 353.8 35.5 354.1 33.2 354.2 C 30.9 354.3 27.4 354.6 25.4 354.8 C 22.9 355.1 21.7 355.1 21.3 354.8 C 21.0 354.5 20.6 354.5 20.0 354.8 C 19.2 355.2 11.9 356.1 11.6 355.8 C 11.5 355.7 9.6 343.8 9.6 342.8 C 9.6 342.7 10.7 341.9 12.1 341.0 C 13.4 340.2 16.9 338.0 19.8 336.2 C 22.6 334.4 27.6 331.3 30.8 329.4 L 36.6 326.0 L 40.6 326.0 C 45.2 325.7 44.9 325.0 45.4 329.2 C 45.8 332.8 46.0 333.0 49.2 332.8 C 51.9 332.6 51.9 332.6 52.0 333.6 C 52.1 334.5 52.3 334.6 53.8 334.6 C 54.8 334.5 55.9 334.3 56.4 334.0 C 57.1 333.6 57.2 333.3 57.0 332.1 C 56.9 331.3 56.6 329.7 56.5 328.6 C 56.3 326.6 56.3 326.5 57.7 325.7 C 58.5 325.2 59.7 324.8 60.8 324.8 C 61.8 324.8 62.7 324.7 62.8 324.6 C 63.0 324.5 62.6 323.3 62.1 322.0 C 60.5 318.1 60.1 315.0 60.8 311.1 C 61.1 309.3 61.1 305.9 61.0 303.6 L 61.0 299.3 L 63.2 297.5 C 65.2 295.9 75.1 289.1 77.0 288.1 C 78.3 287.4 83.0 287.5 83.7 288.2 C 84.3 288.9 85.3 292.7 85.1 293.9 C 84.9 295.0 87.7 295.6 88.6 294.8 C 89.1 294.3 89.1 293.9 88.8 293.4 C 88.0 291.9 88.7 291.0 91.6 289.7 C 95.4 288.0 96.5 288.0 97.5 290.0 C 98.0 290.9 98.5 291.7 98.7 291.8 C 98.8 291.9 100.8 292.0 103.1 292.1 C 106.7 292.2 107.4 292.1 107.7 291.5 C 108.0 291.0 108.0 290.6 107.4 289.7 C 106.4 288.0 106.6 287.0 108.2 285.3 C 109.3 284.0 109.5 283.5 109.3 282.7 C 109.0 281.4 109.4 280.9 113.5 277.1 C 118.1 272.8 121.3 271.3 126.9 270.8 C 129.1 270.5 131.0 270.3 131.1 270.2 C 131.2 270.2 131.7 270.3 132.2 270.5 C 132.8 270.7 133.9 270.8 134.7 270.8 C 136.9 270.8 138.2 271.4 138.8 272.7 C 139.2 273.6 139.7 273.9 141.0 274.0 C 143.3 274.3 144.5 275.3 144.1 276.8 C 144.0 277.7 144.1 278.1 144.8 278.6 C 145.3 279.0 146.1 279.2 146.6 279.2 C 147.9 279.2 148.9 280.9 148.4 282.0 C 148.1 282.4 147.9 283.1 147.9 283.5 C 147.9 284.4 149.5 286.0 150.4 286.0 C 151.6 286.0 152.0 287.6 151.1 289.1 C 150.1 290.7 150.4 291.7 152.0 292.9 C 152.7 293.4 153.1 294.1 153.1 294.6 C 153.1 295.2 153.3 295.7 153.5 295.8 C 153.6 295.9 155.0 295.3 156.5 294.4 C 159.5 292.5 162.8 291.6 164.8 292.0 C 165.9 292.2 166.2 292.5 166.6 293.7 C 167.0 295.0 167.1 295.0 169.3 295.2 C 172.1 295.5 172.8 296.3 172.5 298.8 C 172.4 299.8 172.5 302.0 172.9 303.7 C 173.3 305.4 173.5 307.4 173.5 308.2 C 173.5 308.9 173.8 309.7 174.1 310.0 C 174.3 310.2 176.1 310.6 178.0 310.9 L 181.3 311.4 L 187.7 308.8 C 192.7 306.8 194.2 306.1 194.3 305.4 C 194.4 305.0 194.9 304.1 195.6 303.4 C 196.4 302.6 196.6 302.0 196.5 301.4 C 196.2 300.2 196.7 299.5 200.6 296.0 C 204.6 292.3 207.6 291.0 213.1 290.4 C 215.8 290.1 216.9 290.1 217.3 290.4 C 217.5 290.6 218.6 290.8 219.8 290.8 C 221.2 290.8 222.1 291.0 222.4 291.5 C 223.9 293.2 224.4 293.6 225.4 293.6 C 226.9 293.6 227.9 294.7 227.9 296.3 C 227.9 297.7 228.0 297.8 230.0 298.2 C 231.5 298.5 232.0 299.6 231.4 301.2 C 231.0 302.4 231.0 302.6 232.1 303.5 C 232.7 304.0 233.4 304.4 233.7 304.4 C 234.6 304.4 234.9 306.0 234.2 306.8 C 233.2 307.9 233.4 309.2 234.7 310.4 C 236.2 311.7 236.2 312.7 234.9 314.1 L 233.8 315.2 L 234.7 316.3 C 235.8 317.7 235.8 318.6 234.3 320.2 C 233.4 321.3 233.2 321.8 233.4 322.7 C 233.5 323.6 233.4 324.2 232.6 325.1 L 231.5 326.4 L 233.3 329.0 C 237.5 335.0 240.0 342.4 240.8 351.4 C 241.2 355.3 241.2 356.7 240.8 357.3 C 240.5 357.7 240.3 359.5 240.3 361.3 C 240.3 364.7 239.4 371.0 238.8 371.8 C 238.6 372.0 238.1 373.4 237.7 374.7 C 237.3 376.1 236.9 377.2 236.8 377.1 C 236.4 377.0 231.0 382.6 231.1 382.9 C 231.1 383.3 230.0 383.6 228.1 383.7 C 226.9 383.8 226.9 383.9 226.8 386.6 C 226.6 390.4 226.8 390.9 229.1 393.4 C 234.3 399.1 235.1 404.6 232.5 416.8 C 228.5 435.4 224.2 449.6 216.8 467.9 C 213.3 476.8 212.9 477.6 211.9 477.7 C 211.1 477.8 211.0 478.0 211.1 479.2 C 211.1 480.0 211.1 481.2 210.9 482.0 C 210.6 483.6 208.9 484.4 206.0 484.4 C 204.1 484.4 204.0 484.5 203.1 486.1 C 202.5 487.1 202.0 487.8 201.8 487.7 Z M 202.9 477.0 L 205.8 467.0 C 211.3 448.9 214.7 434.3 217.2 418.2 C 217.8 413.9 218.2 411.1 218.2 408.9 C 218.3 408.5 218.3 408.1 218.2 407.7 C 218.1 405.2 217.4 403.3 216.0 400.4 C 214.9 398.1 213.9 396.1 213.7 395.9 C 213.2 395.6 210.3 396.9 209.6 397.8 C 208.8 398.7 209.4 399.4 210.5 398.8 C 211.0 398.5 211.2 398.5 210.9 398.8 C 210.7 399.0 209.1 399.8 207.3 400.5 C 205.6 401.2 203.9 402.0 203.6 402.2 C 203.6 402.2 203.5 402.0 203.5 402.0 L 203.0 402.0 L 203.0 402.7 C 202.8 403.3 203.3 404.2 203.9 405.7 C 205.0 408.2 204.9 408.7 203.1 410.3 C 201.8 411.5 201.3 412.4 200.7 414.6 C 199.5 418.5 198.6 420.2 196.7 421.9 C 194.5 423.9 194.4 424.3 193.1 429.9 L 192.1 434.8 L 193.6 437.1 C 195.3 439.7 195.8 441.4 195.2 442.2 C 194.7 442.8 195.6 445.8 196.6 446.9 C 198.1 448.6 197.6 451.8 195.4 455.2 C 194.6 456.3 193.9 457.6 193.8 458.2 C 193.4 459.7 190.9 462.3 189.6 462.6 C 189.1 462.8 188.0 463.4 187.3 464.0 C 186.6 464.6 185.8 465.2 185.4 465.4 C 184.6 465.9 181.8 475.7 182.3 476.2 C 182.5 476.4 187.2 477.0 192.8 477.0 L 202.9 477.0 Z M 173.5 474.4 C 174.5 474.4 174.8 474.0 174.3 473.4 C 174.0 473.0 174.1 471.8 174.5 468.9 C 174.9 466.7 175.1 464.7 175.1 464.3 C 175.1 464.0 174.4 463.3 173.4 462.7 C 171.1 461.3 168.0 458.1 167.8 456.8 C 167.7 456.2 167.4 455.3 167.2 454.9 C 166.9 454.5 166.5 453.0 166.2 451.6 C 165.7 449.4 165.7 449.0 166.3 447.4 C 166.8 446.0 166.8 445.4 166.4 444.3 C 166.1 443.4 166.1 442.5 166.4 441.2 C 167.1 437.8 167.6 436.8 168.4 436.8 C 168.9 436.8 169.3 436.4 169.5 435.7 C 169.8 435.1 170.2 434.1 170.6 433.4 C 172.6 429.9 172.6 430.3 170.6 427.7 C 169.3 426.0 168.4 425.2 167.5 425.0 C 166.9 424.9 165.5 424.2 164.6 423.5 C 163.6 422.7 162.5 422.0 162.0 421.8 C 160.5 421.4 158.4 419.3 158.1 418.0 C 157.8 416.5 156.8 414.9 153.8 411.0 C 152.5 409.3 151.3 407.5 151.1 406.8 C 150.6 405.5 149.4 404.6 149.0 405.2 C 148.8 405.4 151.1 414.0 153.9 424.3 C 156.7 434.6 160.1 446.8 161.3 451.4 C 164.2 462.2 165.3 465.3 167.0 468.1 C 168.6 470.7 172.4 474.4 173.5 474.4 Z M 103.6 469.2 C 104.4 469.3 105.2 469.1 105.4 468.7 C 105.6 468.2 104.0 459.9 101.0 444.2 C 100.7 442.7 100.3 440.7 100.2 439.9 C 100.0 439.0 99.7 437.0 99.3 435.5 C 99.0 433.9 98.5 431.2 98.1 429.4 C 97.8 427.5 96.5 423.9 95.1 420.4 C 92.3 414.0 92.1 413.5 91.1 414.0 C 90.6 414.4 90.7 415.5 92.4 424.5 C 98.1 454.1 100.9 467.9 101.5 468.5 C 101.8 469.0 102.7 469.2 103.6 469.2 Z M 149.7 467.8 C 151.3 467.8 152.4 467.8 152.5 467.7 C 152.6 467.5 152.3 466.4 151.8 465.2 C 148.9 458.7 141.7 439.0 135.1 419.6 C 132.8 412.6 130.7 406.7 130.6 406.5 C 130.4 406.2 129.9 406.2 129.0 406.5 C 127.1 407.0 124.2 406.9 123.3 406.3 C 122.3 405.5 122.2 405.5 121.2 406.6 C 119.3 408.6 120.5 409.8 124.5 409.7 C 127.5 409.6 128.3 410.0 128.3 411.5 C 128.3 412.9 127.3 413.6 125.3 413.6 C 124.4 413.6 123.5 413.8 123.3 414.0 C 123.2 414.3 120.3 414.4 116.1 414.4 C 110.7 414.4 109.1 414.6 108.9 415.0 C 108.8 415.3 110.2 419.2 112.0 423.7 C 118.9 441.1 129.0 461.3 132.6 465.2 L 134.6 467.4 L 143.4 467.7 C 145.8 467.8 148.0 467.8 149.7 467.8 Z M 157.3 389.5 C 157.4 389.5 157.6 389.5 157.8 389.4 C 158.4 389.4 159.1 389.3 159.3 389.3 C 159.4 389.3 159.9 388.4 160.4 387.4 L 161.1 385.6 L 159.9 384.2 C 159.3 383.4 158.7 382.6 158.7 382.4 C 158.7 382.2 157.8 381.4 156.6 380.7 C 154.6 379.4 154.4 379.1 153.8 377.1 C 153.3 375.6 152.8 374.7 152.0 374.2 C 150.1 372.9 149.4 372.4 148.5 372.1 C 148.1 371.9 146.9 371.1 145.8 370.3 C 143.6 368.6 143.9 368.7 143.0 369.3 C 142.5 369.8 142.4 370.2 142.7 371.9 C 142.9 373.1 142.9 374.2 142.8 374.4 C 142.6 374.6 141.3 375.4 139.8 376.2 L 137.1 377.7 L 139.2 379.9 C 140.3 381.2 141.6 383.0 142.2 384.1 C 142.8 385.3 143.7 386.4 144.8 387.1 C 146.3 388.0 146.4 388.1 148.7 387.5 C 153.0 386.3 155.6 386.7 156.3 388.6 C 156.6 389.2 156.8 389.4 157.3 389.5 Z M 105.8 384.5 C 106.5 384.6 107.9 384.4 109.5 384.2 C 112.4 383.7 113.8 383.6 115.5 383.9 C 118.0 384.4 118.6 384.1 118.0 382.9 C 117.6 382.3 117.3 382.1 116.2 382.3 C 115.1 382.5 114.7 382.3 114.1 381.7 C 113.7 381.2 112.9 380.9 112.4 380.9 C 111.0 380.9 105.0 384.0 105.4 384.5 C 105.4 384.5 105.6 384.5 105.8 384.5 Z M 21.2 347.2 C 22.3 347.2 22.4 346.4 21.9 343.8 C 21.7 342.3 21.3 340.9 21.2 340.8 C 21.1 340.6 20.5 340.8 20.0 341.2 C 19.1 341.9 19.1 342.1 19.4 344.5 C 19.7 346.8 19.9 347.1 20.7 347.2 C 20.9 347.2 21.1 347.2 21.2 347.2 Z M 32.4 339.6 C 32.6 339.6 32.9 339.5 33.3 339.4 C 35.3 339.0 35.5 338.6 35.1 335.6 C 34.9 334.2 34.6 332.9 34.4 332.7 C 34.3 332.6 33.5 332.9 32.7 333.4 C 31.2 334.4 31.2 334.5 31.4 336.5 C 31.7 338.9 31.7 339.5 32.4 339.6 Z M 32.4 339.6 "></path></clipPath><g clip-path="url(#clip-58)"><image xlink:href="../../293415CD-D1BA-41BB-8703-BAEDA9FFCE27/assets/BBE0F0144841DE2FCCAD1AA33371F094.png" width="856.00" height="768.00" transform="matrix(0.30, 0.00, -0.00, -0.30, -3.7, 492.4)"></image></g></g></g></g><image xlink:href="../../293415CD-D1BA-41BB-8703-BAEDA9FFCE27/assets/66948079D8A93F345123E55DB5FF3D13.png" width="223.00" height="169.00" transform="matrix(1.00, 0.00, -0.00, -1.00, 53.1, 583.2)" opacity="0.50"></image><g><clipPath id="clip-59"><path d="M 58.0 588.0 L 271.0 588.0 L 271.0 428.0 L 58.0 428.0 Z M 58.1 587.7 "></path></clipPath><g clip-path="url(#clip-59)"><g><clipPath id="clip-60"><path d="M 157.4 560.9 C 157.3 560.9 157.2 560.7 157.1 560.3 C 156.6 557.9 152.3 543.2 152.0 542.9 C 151.9 542.8 151.0 542.8 149.8 543.0 C 148.7 543.2 146.0 543.6 143.7 544.0 C 141.3 544.4 137.8 545.1 135.8 545.7 C 133.8 546.2 131.2 546.9 130.1 547.1 C 129.0 547.4 127.3 547.9 126.4 548.2 C 118.3 551.2 114.8 552.6 109.9 555.0 C 106.8 556.5 104.1 557.6 104.0 557.6 C 103.0 557.2 93.8 549.7 90.4 546.5 C 86.2 542.5 79.7 535.0 76.7 530.8 C 74.0 526.9 71.4 523.0 70.7 521.8 C 66.1 513.6 62.2 505.1 60.5 499.5 C 60.0 497.9 59.2 495.5 58.8 494.2 C 57.9 491.2 57.1 487.9 56.5 484.6 C 56.3 483.2 55.9 481.3 55.7 480.4 C 55.3 478.8 55.1 476.7 54.5 469.2 C 54.3 467.1 54.0 463.1 54.0 460.1 L 54.0 454.7 L 55.7 456.7 C 57.6 459.5 61.2 463.3 63.9 465.2 C 73.8 472.1 87.1 472.3 97.2 465.8 C 98.5 465.0 100.5 463.4 101.7 462.3 C 102.9 461.1 104.0 460.2 104.1 460.2 C 104.3 460.2 105.2 461.3 106.3 462.7 C 108.7 465.7 112.7 469.2 116.3 471.3 C 119.1 473.0 124.5 475.2 125.1 475.0 C 125.4 474.9 126.0 472.5 126.0 463.2 L 126.0 452.0 L 166.4 452.0 L 207.0 452.0 L 207.0 463.1 C 207.0 469.5 207.4 474.8 207.6 474.9 C 208.0 475.3 213.4 473.1 216.3 471.4 C 220.4 469.0 223.7 466.0 226.8 462.2 L 228.6 459.9 L 230.6 462.0 C 236.3 467.6 243.7 470.5 252.0 470.5 C 261.8 470.5 271.3 465.4 276.8 457.0 L 278.0 454.7 L 278.0 459.7 C 278.1 466.2 278.4 467.7 277.8 473.9 C 277.3 478.7 275.7 487.7 274.9 490.5 C 272.9 497.5 271.3 502.6 270.0 505.3 C 269.7 506.0 268.9 508.0 268.2 509.7 C 265.8 515.6 260.1 525.2 254.6 532.6 C 250.7 538.0 241.6 547.5 236.9 551.3 C 231.2 555.8 228.8 557.7 228.6 557.7 C 228.4 557.7 226.4 556.8 224.1 555.6 C 221.8 554.5 219.2 553.2 218.3 552.8 C 216.9 552.1 212.2 550.4 206.7 548.4 C 204.5 547.6 192.8 544.5 191.2 544.3 C 190.6 544.2 188.1 543.8 185.5 543.4 C 181.5 542.8 180.9 542.8 180.7 543.1 C 180.5 543.3 180.0 544.7 179.6 546.2 C 179.2 547.7 178.5 550.0 178.1 551.5 C 177.7 552.9 176.9 555.4 176.4 557.1 C 176.0 558.9 175.5 560.5 175.4 560.7 C 175.3 561.1 174.9 560.3 174.0 558.0 C 173.4 556.2 172.7 554.6 172.5 554.4 C 172.3 554.3 169.9 554.0 166.1 554.0 L 160.0 554.0 L 158.8 557.6 C 158.2 559.4 157.5 560.9 157.4 560.9 Z M 249.2 517.5 C 250.3 517.5 251.3 517.0 252.3 516.0 C 253.7 514.6 254.1 513.2 253.7 511.6 C 253.3 510.4 252.1 508.9 250.9 508.3 C 249.0 507.2 246.2 508.2 244.9 510.4 C 244.6 510.9 244.4 511.4 244.3 511.9 C 244.3 511.9 244.3 512.0 244.3 512.1 C 244.0 513.6 244.6 515.0 245.9 516.2 C 246.9 517.1 248.1 517.5 249.2 517.5 Z M 83.7 517.4 C 83.9 517.3 84.1 517.3 84.4 517.2 C 85.7 516.9 87.4 515.8 87.9 514.9 C 88.5 513.6 88.2 510.6 87.2 509.6 C 86.9 509.2 86.2 508.7 85.5 508.4 C 83.4 507.4 81.1 508.1 79.8 510.1 C 78.9 511.3 78.9 513.2 79.6 514.9 C 80.0 515.8 80.4 516.2 81.6 516.8 C 82.7 517.3 83.1 517.4 83.7 517.4 Z M 134.3 476.4 C 138.1 476.5 139.1 476.4 142.1 475.8 C 146.2 475.0 150.6 473.4 153.9 471.4 C 157.8 469.1 157.1 469.8 157.0 464.6 L 157.0 460.0 L 143.4 460.0 C 135.7 460.0 129.3 460.0 129.2 460.1 C 129.1 460.2 129.0 463.8 129.0 468.0 C 129.0 474.7 129.1 475.6 129.5 476.0 C 129.8 476.2 131.1 476.4 134.3 476.4 Z M 197.4 476.3 C 200.3 476.3 202.8 476.2 203.1 476.1 C 203.5 476.0 203.1 475.4 203.0 468.0 L 203.0 460.0 L 189.6 460.0 C 182.0 460.0 175.6 460.0 175.5 460.1 C 175.4 460.2 175.0 462.4 175.0 464.8 L 175.0 469.4 L 178.6 471.3 C 180.4 472.4 181.9 473.2 182.0 473.2 C 182.1 473.2 183.4 473.7 184.8 474.2 C 189.5 475.9 191.6 476.3 197.4 476.3 Z M 197.4 476.3 "></path></clipPath><g clip-path="url(#clip-60)"><image xlink:href="../../293415CD-D1BA-41BB-8703-BAEDA9FFCE27/assets/8D27DEC37080341FE6EC2BEB6643C844.png" width="265.00" height="159.00" transform="matrix(1.00, 0.00, -0.00, -1.01, 31.9, 587.9)"></image></g></g></g></g><text xml:space="preserve" font-family="GillSans-Light" font-size="36.0" fill="#FEFFFE" transform="matrix(1.00, 0.00, -0.00, -1.00, 99.0, 496.0)">S</text><text xml:space="preserve" font-family="GillSans-Light" font-size="36.0" fill="#FEFFFE" transform="matrix(1.00, 0.00, -0.00, -1.00, 115.9, 496.0)">e</text><text xml:space="preserve" font-family="GillSans-Light" font-size="36.0" fill="#FEFFFE" transform="matrix(1.00, 0.00, -0.00, -1.00, 133.1, 496.0)">n</text><text xml:space="preserve" font-family="GillSans-Light" font-size="36.0" fill="#FEFFFE" transform="matrix(1.00, 0.00, -0.00, -1.00, 150.8, 496.0)">s</text><text xml:space="preserve" font-family="GillSans-Light" font-size="36.0" fill="#FEFFFE" transform="matrix(1.00, 0.00, -0.00, -1.00, 163.5, 496.0)">o</text><text xml:space="preserve" font-family="GillSans-Light" font-size="36.0" fill="#FEFFFE" transform="matrix(1.00, 0.00, -0.00, -1.00, 183.1, 496.0)">r</text><text xml:space="preserve" font-family="GillSans-Light" font-size="36.0" fill="#FEFFFE" transform="matrix(1.00, 0.00, -0.00, -1.00, 195.0, 496.0)">e</text><text xml:space="preserve" font-family="GillSans-Light" font-size="36.0" fill="#FEFFFE" transform="matrix(1.00, 0.00, -0.00, -1.00, 212.3, 496.0)">n</text><g opacity="0.00"><g><clipPath id="clip-61"><path d="M 94.0 483.0 L 235.0 483.0 L 235.0 533.0 L 94.0 533.0 Z M 94.0 483.0 "></path></clipPath><g clip-path="url(#clip-61)"><text xml:space="preserve" font-family="GillSans-Light" font-size="36.0" fill="#525252" transform="matrix(1.00, 0.00, -0.00, -1.00, 99.0, 496.0)">S</text><text xml:space="preserve" font-family="GillSans-Light" font-size="36.0" fill="#525252" transform="matrix(1.00, 0.00, -0.00, -1.00, 115.9, 496.0)">e</text><text xml:space="preserve" font-family="GillSans-Light" font-size="36.0" fill="#525252" transform="matrix(1.00, 0.00, -0.00, -1.00, 133.1, 496.0)">n</text><text xml:space="preserve" font-family="GillSans-Light" font-size="36.0" fill="#525252" transform="matrix(1.00, 0.00, -0.00, -1.00, 150.8, 496.0)">s</text><text xml:space="preserve" font-family="GillSans-Light" font-size="36.0" fill="#525252" transform="matrix(1.00, 0.00, -0.00, -1.00, 163.5, 496.0)">o</text><text xml:space="preserve" font-family="GillSans-Light" font-size="36.0" fill="#525252" transform="matrix(1.00, 0.00, -0.00, -1.00, 183.1, 496.0)">r</text><text xml:space="preserve" font-family="GillSans-Light" font-size="36.0" fill="#525252" transform="matrix(1.00, 0.00, -0.00, -1.00, 195.0, 496.0)">e</text><text xml:space="preserve" font-family="GillSans-Light" font-size="36.0" fill="#525252" transform="matrix(1.00, 0.00, -0.00, -1.00, 212.3, 496.0)">n</text></g></g></g><g><clipPath id="clip-62"><path d="M 314.0 706.0 L 538.0 706.0 L 538.0 547.0 L 314.0 547.0 Z M 314.2 706.4 "></path></clipPath><g clip-path="url(#clip-62)"><g><clipPath id="clip-63"><path d="M 409.0 706.4 L 372.9 706.0 L 336.0 706.0 L 336.0 693.2 L 336.0 680.0 L 324.9 680.0 L 314.0 680.0 L 314.0 662.4 L 314.0 647.5 C 314.2 647.3 314.6 647.1 314.8 646.7 C 315.5 645.5 316.4 645.5 331.4 645.4 C 340.1 645.3 347.5 645.1 347.8 645.0 C 349.4 644.0 347.1 643.4 341.8 643.4 C 336.0 643.4 335.9 643.4 335.9 641.8 C 335.9 640.9 335.6 640.0 335.3 639.8 C 334.9 639.6 334.9 638.8 335.1 638.0 C 335.3 637.2 335.9 624.8 336.0 610.6 L 336.0 608.4 C 336.0 606.9 336.0 605.8 336.0 604.3 L 336.0 584.7 L 334.4 583.5 C 333.6 582.9 331.8 582.0 330.1 582.0 L 327.4 582.0 C 327.4 581.9 327.0 582.0 327.0 581.9 L 328.0 569.4 L 328.0 558.6 C 328.1 557.6 327.9 556.3 328.1 556.0 L 331.6 556.0 L 336.0 556.0 L 336.0 552.4 C 336.2 550.5 336.4 548.8 336.7 548.6 C 337.2 548.0 453.1 548.0 454.5 548.6 C 455.1 548.8 458.3 548.9 461.7 548.7 C 465.1 548.4 475.8 548.3 485.7 548.3 C 497.4 548.3 503.7 548.1 504.0 547.6 C 504.5 546.7 513.3 546.7 513.8 547.6 C 514.1 548.0 516.9 548.2 520.8 548.1 C 525.6 547.9 527.6 548.1 528.1 548.7 C 528.5 549.2 529.2 549.6 529.7 549.6 C 530.4 549.6 530.6 550.5 530.6 552.7 C 530.6 555.4 530.9 556.2 532.6 557.8 C 533.8 558.9 535.2 560.7 536.0 561.8 C 537.2 563.8 537.6 565.6 538.0 612.5 L 538.0 652.8 L 538.0 661.3 L 536.6 662.7 C 535.9 663.4 535.6 663.9 535.6 664.3 L 535.6 664.3 C 531.7 668.2 531.6 668.5 531.2 673.4 C 530.9 676.2 530.7 684.1 530.7 690.9 C 530.6 702.7 530.5 703.4 529.2 704.8 L 527.8 706.0 L 472.3 706.0 L 417.0 706.0 L 417.0 705.0 C 416.8 703.7 416.1 703.5 413.2 703.5 C 410.3 703.5 410.2 703.7 410.0 705.0 L 409.0 706.4 Z M 380.4 704.4 C 381.8 704.4 383.1 703.7 384.2 702.4 C 386.4 699.7 386.4 697.5 384.0 695.2 C 381.5 692.6 378.8 692.6 376.5 695.1 C 374.1 697.6 374.1 700.6 376.5 702.8 C 377.7 704.0 379.1 704.5 380.4 704.4 Z M 531.4 659.1 C 532.0 659.1 533.3 658.4 534.3 657.6 C 535.7 656.4 536.1 655.4 536.1 653.5 C 536.1 651.7 535.7 650.7 534.3 649.5 C 533.3 648.7 531.9 648.0 531.1 648.0 C 528.3 648.0 524.9 652.0 525.8 654.3 C 526.4 656.0 530.0 659.1 531.4 659.1 Z M 529.9 574.7 C 531.1 574.9 532.4 574.7 533.8 573.9 C 536.9 571.9 536.7 568.0 533.2 566.3 C 530.7 565.0 529.7 565.1 527.6 566.8 C 524.1 569.8 526.3 574.1 529.9 574.7 Z M 376.6 561.3 C 377.7 561.3 378.7 560.7 380.0 559.6 C 382.6 557.2 382.8 554.1 380.6 551.8 C 377.9 549.2 375.9 549.1 373.2 551.5 C 370.0 554.3 369.9 556.6 373.1 559.3 C 374.5 560.6 375.6 561.2 376.6 561.3 Z M 376.6 561.3 "></path></clipPath><g clip-path="url(#clip-63)"><image xlink:href="../../BDC95B68-954C-4367-BEA9-2A858C7660A5/assets/680883B55276747BDDD541CC1D9B29A6.png" width="247.00" height="185.00" transform="matrix(1.00, 0.00, -0.00, -1.00, 304.0, 719.0)"></image></g></g></g></g><path d="M 0.0 0.0 L 164.8 0.0 L 169.8 0.0 " fill="none" stroke="#3D4453" stroke-width="10.00" transform="matrix(0.91, 0.41, 0.41, -0.91, 249.1, 544.4)"></path><path d="M 407.4 594.3 L 434.6 627.5 L 391.7 629.3 Z M 407.4 594.3 " fill="#3D4453"></path><g><clipPath id="clip-64"><path d="M 463.0 635.0 L 561.0 635.0 L 561.0 535.0 L 463.0 535.0 Z M 463.4 634.6 "></path></clipPath><g clip-path="url(#clip-64)"><g><clipPath id="clip-65"><path d="M 516.1 535.0 C 515.5 535.2 514.6 535.6 514.2 535.8 C 510.0 537.8 508.0 538.7 507.9 538.7 C 507.8 538.7 502.2 541.3 497.0 543.8 C 495.2 544.7 491.9 546.3 489.7 547.3 C 483.8 550.0 478.3 552.7 477.4 553.4 C 476.9 553.6 476.4 553.9 476.1 553.9 C 475.6 553.9 473.8 554.7 471.8 555.9 C 471.0 556.3 469.2 557.3 467.8 558.0 C 465.2 559.4 463.9 560.2 463.6 560.6 C 463.2 561.0 463.6 562.1 464.5 563.4 C 464.9 564.0 465.3 564.6 465.3 564.7 C 465.3 564.8 466.3 566.5 467.6 568.4 C 468.9 570.4 470.5 572.8 471.1 573.8 C 476.6 582.3 483.5 592.9 487.3 598.6 C 488.1 599.7 491.4 604.6 494.6 609.5 C 497.9 614.4 501.0 619.1 501.6 619.9 C 502.1 620.7 503.4 622.5 504.4 624.0 C 505.3 625.4 506.7 627.3 507.4 628.3 C 508.0 629.3 508.9 630.5 509.2 631.0 C 509.5 631.5 510.3 632.1 511.0 632.4 C 512.3 633.0 512.6 633.4 512.2 633.9 C 511.8 634.3 512.0 634.6 512.7 634.6 C 513.5 634.6 520.3 632.5 520.8 632.1 C 521.0 631.9 521.3 631.4 521.5 630.9 C 522.0 629.8 522.4 629.7 522.8 630.6 C 522.9 631.0 523.2 631.3 523.3 631.3 C 523.5 631.3 524.9 630.5 526.5 630.0 L 529.0 630.0 L 530.0 628.3 C 530.3 627.5 530.6 627.0 530.8 627.0 C 531.3 627.0 531.8 627.7 531.6 628.3 C 531.5 628.8 531.5 628.8 532.6 628.5 C 533.2 628.4 533.6 628.2 533.5 628.0 C 533.4 627.9 533.6 627.7 533.9 627.5 C 534.2 627.4 534.4 627.1 534.4 626.9 C 534.3 626.3 535.2 626.1 536.2 626.5 C 537.2 627.0 537.2 627.0 538.1 626.4 C 538.7 626.1 539.1 626.0 539.2 626.1 C 539.5 626.5 544.7 624.7 544.7 624.2 C 544.7 624.0 545.0 623.9 545.5 623.9 C 545.9 624.0 546.4 623.8 546.6 623.7 C 546.8 623.5 547.2 623.4 547.4 623.5 C 547.7 623.6 547.8 623.5 547.9 623.2 C 547.9 622.9 547.9 622.6 547.9 622.3 C 548.0 622.1 548.2 622.0 548.4 622.0 C 548.7 622.1 548.7 622.0 548.5 621.8 C 548.2 621.5 548.2 621.3 548.4 620.9 C 548.7 620.4 548.7 620.4 549.4 621.0 C 549.7 621.3 550.0 621.9 550.0 622.3 C 550.0 622.7 550.1 622.9 550.4 622.8 C 550.6 622.7 552.7 622.0 555.2 621.2 C 557.7 620.4 559.9 619.6 560.2 619.4 C 560.6 619.0 560.6 618.7 560.5 618.0 C 560.4 617.4 560.2 616.8 559.9 616.6 C 559.7 616.3 559.6 616.1 559.6 615.9 C 559.6 615.8 557.6 611.5 556.8 610.0 C 556.6 609.7 555.6 607.7 554.5 605.5 C 553.3 603.3 551.7 600.2 550.9 598.6 C 550.2 597.1 549.4 595.7 549.2 595.5 C 549.1 595.4 548.9 595.0 548.9 594.7 C 548.9 594.4 548.7 593.9 548.4 593.5 C 548.1 593.1 547.8 592.7 547.8 592.5 C 547.8 592.3 547.5 591.6 547.1 591.1 C 546.8 590.5 546.4 589.7 546.3 589.3 C 546.2 588.9 546.0 588.4 545.8 588.3 C 545.6 588.1 544.8 586.7 544.0 585.2 C 543.3 583.7 542.5 582.2 542.4 582.0 C 542.2 581.8 540.7 578.6 538.9 575.0 C 537.2 571.4 535.6 568.3 535.4 568.1 C 535.1 567.7 533.1 563.8 530.9 559.5 C 530.3 558.5 529.6 557.1 529.3 556.5 C 529.0 555.9 528.6 555.0 528.3 554.5 C 528.1 554.0 527.6 553.1 527.2 552.5 C 526.9 552.0 526.6 551.3 526.6 551.2 C 526.6 550.9 523.9 545.6 521.4 540.6 C 520.7 539.3 519.9 537.7 519.7 537.0 C 519.1 535.5 518.3 534.6 517.6 534.6 C 517.4 534.6 516.7 534.8 516.1 535.0 "></path></clipPath><g clip-path="url(#clip-65)"><image xlink:href="../../BDC95B68-954C-4367-BEA9-2A858C7660A5/assets/6C7686B988440C1F9EF05435DAA75AC9.png" width="157.00" height="157.00" transform="matrix(1.00, 0.00, -0.00, -1.00, 435.0, 666.0)"></image></g></g></g></g><g><clipPath id="clip-66"><path d="M 699.0 691.0 L 922.0 691.0 L 922.0 562.0 L 699.0 562.0 Z M 698.6 691.2 "></path></clipPath><g clip-path="url(#clip-66)"><g><clipPath id="clip-67"><path d="M 800.6 691.2 C 798.5 691.2 796.4 691.0 794.1 690.8 C 790.6 690.5 786.4 689.9 781.8 689.1 C 781.6 689.1 781.4 689.0 781.3 689.0 C 776.9 688.3 772.2 687.4 767.6 686.4 C 765.2 686.0 762.9 685.4 760.5 684.9 C 758.2 684.4 755.9 683.9 753.7 683.4 C 748.2 682.0 742.9 680.6 738.0 679.1 C 717.8 672.8 703.2 667.3 700.5 665.1 C 699.8 664.5 699.4 664.0 699.1 663.4 C 699.1 663.4 699.0 663.3 699.0 663.3 C 698.7 662.7 698.6 662.0 698.6 661.1 C 698.6 660.6 698.7 660.1 698.7 659.8 C 699.0 659.1 699.6 658.4 700.4 657.8 C 700.7 657.7 700.8 657.6 701.1 657.4 C 701.7 657.1 702.2 656.8 702.6 656.5 C 702.6 656.5 702.6 656.5 702.6 656.5 C 702.9 656.3 703.1 656.0 703.2 655.8 C 703.3 655.5 703.2 655.3 703.0 655.2 C 702.8 655.1 702.5 655.0 702.0 655.0 C 701.9 655.0 701.9 655.0 701.9 655.0 C 701.6 654.9 701.4 654.9 701.3 654.7 C 701.2 654.6 701.3 654.3 701.4 653.9 C 702.0 652.7 702.4 651.3 702.8 649.8 C 703.0 649.4 703.2 648.8 703.1 648.5 C 704.0 645.0 704.7 640.5 705.4 634.0 C 706.1 627.4 706.9 621.6 707.0 621.0 C 707.2 620.4 710.3 618.1 714.0 615.9 C 715.7 614.9 716.4 614.3 717.4 613.7 C 718.8 612.8 721.6 611.1 723.6 610.0 C 724.1 609.8 724.6 609.5 724.9 609.2 C 728.8 606.8 730.2 605.9 736.6 602.2 C 739.6 600.4 740.3 600.0 742.6 598.6 C 742.9 598.6 743.2 598.3 743.7 598.0 L 745.1 598.0 L 744.9 597.0 C 760.0 588.1 765.0 585.5 794.2 569.0 C 807.1 561.7 807.3 561.6 809.2 563.2 C 810.8 564.4 810.8 564.4 811.4 563.2 C 811.4 563.2 811.4 563.2 811.4 563.2 C 811.9 563.1 812.4 563.1 813.3 562.8 C 816.8 561.7 821.8 562.0 823.9 563.3 C 824.5 563.7 825.6 564.1 826.8 564.4 C 827.1 564.8 827.4 564.9 827.8 564.7 C 827.8 564.7 827.8 564.7 827.8 564.7 C 829.2 565.0 830.8 565.6 831.4 566.1 C 832.2 566.8 832.6 566.9 833.2 566.4 C 833.7 565.9 834.3 566.1 835.7 567.2 C 837.0 568.3 838.0 568.7 839.0 568.4 C 839.9 568.2 840.4 568.3 840.3 568.8 C 840.1 569.8 844.7 571.3 845.7 570.6 C 846.2 570.1 846.9 570.4 847.9 571.5 C 848.8 572.4 849.9 573.0 850.7 572.9 C 851.4 572.8 852.5 573.1 853.0 573.6 C 853.6 574.0 854.6 574.5 855.4 574.6 C 856.2 574.6 857.1 574.7 857.5 574.8 C 858.0 574.8 858.3 575.2 858.2 575.6 C 858.1 576.0 858.6 576.4 859.2 576.6 C 859.9 576.7 860.9 576.9 861.4 577.2 C 861.9 577.4 862.5 577.6 862.6 577.6 C 862.8 577.7 863.8 578.1 864.8 578.5 C 865.8 579.0 867.2 579.3 867.8 579.3 C 868.5 579.3 869.7 579.8 870.6 580.5 C 871.6 581.3 872.3 581.5 872.7 581.0 C 873.2 580.6 873.7 580.8 874.3 581.6 C 875.0 582.5 876.2 583.0 878.0 583.1 C 879.7 583.3 880.9 583.7 881.2 584.3 C 881.6 584.9 882.2 585.3 882.6 585.3 C 883.1 585.3 885.0 586.0 886.9 586.9 C 888.8 587.7 890.6 588.5 890.8 588.5 C 891.1 588.5 892.0 588.8 892.8 589.1 C 893.6 589.4 894.6 589.6 894.9 589.5 C 895.3 589.4 895.9 589.7 896.3 590.2 C 896.7 590.7 897.8 591.1 898.9 591.2 C 899.0 591.2 899.1 591.2 899.3 591.3 C 899.3 591.3 899.3 591.3 899.3 591.3 C 900.2 591.4 901.2 591.6 901.6 591.9 C 902.0 592.2 902.7 592.5 903.3 592.8 C 904.0 593.4 904.7 593.8 905.1 593.7 C 905.1 593.7 905.3 593.7 905.4 593.7 C 905.8 593.9 906.2 594.0 906.7 594.1 C 907.0 594.3 907.2 594.4 907.5 594.6 C 908.3 595.2 909.2 595.7 909.5 595.5 C 909.5 595.5 909.7 595.6 909.7 595.7 C 909.9 595.8 909.9 595.9 910.0 596.0 C 910.7 596.8 911.7 598.4 912.2 599.6 C 912.8 600.9 913.6 602.2 914.2 602.5 C 915.0 602.9 915.4 605.3 916.3 615.4 C 916.9 622.2 917.7 628.9 918.1 630.1 C 918.4 631.4 918.7 633.7 918.7 635.1 C 918.7 637.4 919.0 637.8 920.6 638.7 C 922.2 639.5 922.4 639.9 922.4 642.3 C 922.4 642.5 922.4 642.7 922.4 642.9 C 922.4 642.9 922.4 642.9 922.4 643.0 C 922.2 644.3 921.8 645.5 921.2 646.4 C 921.1 646.4 921.1 646.4 921.1 646.4 C 920.2 647.5 918.3 648.8 915.6 650.3 C 912.9 651.8 909.5 653.6 905.7 655.5 C 905.3 655.8 904.7 656.0 904.2 656.3 C 894.9 660.9 886.1 665.1 877.6 668.7 C 875.0 669.9 872.4 671.0 869.8 672.0 C 862.0 675.2 854.4 678.0 847.1 680.6 C 846.4 680.8 845.8 681.0 845.1 681.2 C 843.9 681.6 842.8 681.9 841.7 682.3 C 835.9 684.2 830.1 685.8 824.2 687.4 C 816.3 689.4 811.0 690.5 806.2 691.0 C 805.9 691.0 805.7 691.0 805.4 691.0 C 804.0 691.2 802.7 691.2 801.3 691.2 C 801.1 691.2 800.8 691.2 800.6 691.2 Z M 800.6 691.2 "></path></clipPath><g clip-path="url(#clip-67)"><image xlink:href="../../BDC95B68-954C-4367-BEA9-2A858C7660A5/assets/72DB9473140966917769F665ECAE67E2.png" width="266.00" height="177.00" transform="matrix(1.00, 0.00, -0.00, -1.00, 679.0, 712.0)"></image></g></g></g></g><path d="M 0.0 0.0 L 185.4 0.0 L 190.4 0.0 " fill="none" stroke="#3D4453" stroke-width="10.00" transform="matrix(1.00, 0.00, 0.00, -1.00, 505.2, 625.3)"></path><path d="M 690.6 606.1 L 729.0 625.3 L 690.6 644.5 Z M 690.6 606.1 " fill="#3D4453"></path><path d="M 0.0 0.0 L 121.0 0.0 L 126.0 0.0 " fill="none" stroke="#3D4453" stroke-width="10.00" transform="matrix(0.00, -1.00, -1.00, 0.00, 829.9, 552.4)"></path><path d="M 810.7 431.3 L 829.9 392.9 L 849.1 431.3 Z M 810.7 431.3 " fill="#3D4453"></path><g><clipPath id="clip-68"><path d="M 417.3 288.2 L 598.8 288.2 L 598.8 310.2 L 417.3 310.2 Z M 417.3 288.2 "></path></clipPath><g clip-path="url(#clip-68)"><text xml:space="preserve" font-family="GillSans-Light" font-size="18.0" fill="#8F8F8F" transform="matrix(1.00, 0.00, -0.00, -1.00, 481.0, 293.0)">A</text><text xml:space="preserve" font-family="GillSans-Light" font-size="18.0" fill="#8F8F8F" transform="matrix(1.00, 0.00, -0.00, -1.00, 493.0, 293.0)">n</text><text xml:space="preserve" font-family="GillSans-Light" font-size="18.0" fill="#8F8F8F" transform="matrix(1.00, 0.00, -0.00, -1.00, 501.8, 293.0)">a</text><text xml:space="preserve" font-family="GillSans-Light" font-size="18.0" fill="#8F8F8F" transform="matrix(1.00, 0.00, -0.00, -1.00, 509.5, 293.0)">l</text><text xml:space="preserve" font-family="GillSans-Light" font-size="18.0" fill="#8F8F8F" transform="matrix(1.00, 0.00, -0.00, -1.00, 512.7, 293.0)">y</text><text xml:space="preserve" font-family="GillSans-Light" font-size="18.0" fill="#8F8F8F" transform="matrix(1.00, 0.00, -0.00, -1.00, 520.2, 293.0)">s</text><text xml:space="preserve" font-family="GillSans-Light" font-size="18.0" fill="#8F8F8F" transform="matrix(1.00, 0.00, -0.00, -1.00, 526.6, 293.0)">e</text></g></g><path d="M 418.0 276.0 L 598.0 276.0 L 598.0 102.0 L 418.0 102.0 Z M 418.0 276.0 " fill="#000000" fill-opacity="0.00"></path><path d="M 11.0 163.7 L 191.0 163.7 " fill="none" stroke="#E5E5E5" stroke-width="1.00" stroke-linejoin="round" transform="matrix(1.00, 0.00, 0.00, -1.00, 407.0, 309.2)"></path><path d="M 11.0 120.7 L 191.0 120.7 " fill="none" stroke="#E5E5E5" stroke-width="1.00" stroke-linejoin="round" transform="matrix(1.00, 0.00, 0.00, -1.00, 407.0, 309.2)"></path><path d="M 11.0 76.7 L 191.0 76.7 " fill="none" stroke="#E5E5E5" stroke-width="1.00" stroke-linejoin="round" transform="matrix(1.00, 0.00, 0.00, -1.00, 407.0, 309.2)"></path><path d="M 11.0 32.7 L 191.0 32.7 " fill="none" stroke="#E5E5E5" stroke-width="1.00" stroke-linejoin="round" transform="matrix(1.00, 0.00, 0.00, -1.00, 407.0, 309.2)"></path><path d="M 11.5 207.7 L 190.5 207.7 " fill="none" stroke="#E5E5E5" stroke-width="1.00" stroke-linecap="square" stroke-linejoin="round" transform="matrix(1.00, 0.00, 0.00, -1.00, 407.0, 309.2)"></path><g><clipPath id="clip-69"><path d="M 436.8 83.0 L 489.4 83.0 L 489.4 98.0 L 436.8 98.0 Z M 436.8 83.0 "></path></clipPath><g clip-path="url(#clip-69)"><text xml:space="preserve" font-family="GillSans-Light" font-size="11.0" fill="#8F8F8F" transform="matrix(1.00, 0.00, -0.00, -1.00, 438.0, 87.0)">K</text><text xml:space="preserve" font-family="GillSans-Light" font-size="11.0" fill="#8F8F8F" transform="matrix(1.00, 0.00, -0.00, -1.00, 443.8, 87.0)">a</text><text xml:space="preserve" font-family="GillSans-Light" font-size="11.0" fill="#8F8F8F" transform="matrix(1.00, 0.00, -0.00, -1.00, 448.5, 87.0)">t</text><text xml:space="preserve" font-family="GillSans-Light" font-size="11.0" fill="#8F8F8F" transform="matrix(1.00, 0.00, -0.00, -1.00, 451.8, 87.0)">e</text><text xml:space="preserve" font-family="GillSans-Light" font-size="11.0" fill="#8F8F8F" transform="matrix(1.00, 0.00, -0.00, -1.00, 457.1, 87.0)">g</text><text xml:space="preserve" font-family="GillSans-Light" font-size="11.0" fill="#8F8F8F" transform="matrix(1.00, 0.00, -0.00, -1.00, 461.8, 87.0)">o</text><text xml:space="preserve" font-family="GillSans-Light" font-size="11.0" fill="#8F8F8F" transform="matrix(1.00, 0.00, -0.00, -1.00, 467.8, 87.0)">r</text><text xml:space="preserve" font-family="GillSans-Light" font-size="11.0" fill="#8F8F8F" transform="matrix(1.00, 0.00, -0.00, -1.00, 471.7, 87.0)">i</text><text xml:space="preserve" font-family="GillSans-Light" font-size="11.0" fill="#8F8F8F" transform="matrix(1.00, 0.00, -0.00, -1.00, 473.8, 87.0)">e</text><text xml:space="preserve" font-family="GillSans-Light" font-size="11.0" fill="#8F8F8F" transform="matrix(1.00, 0.00, -0.00, -1.00, 479.0, 87.0)"> </text><text xml:space="preserve" font-family="GillSans-Light" font-size="11.0" fill="#8F8F8F" transform="matrix(1.00, 0.00, -0.00, -1.00, 482.1, 87.0)">1</text></g></g><g><clipPath id="clip-70"><path d="M 526.6 83.0 L 579.2 83.0 L 579.2 98.0 L 526.6 98.0 Z M 526.6 83.0 "></path></clipPath><g clip-path="url(#clip-70)"><text xml:space="preserve" font-family="GillSans-Light" font-size="11.0" fill="#8F8F8F" transform="matrix(1.00, 0.00, -0.00, -1.00, 528.0, 87.0)">K</text><text xml:space="preserve" font-family="GillSans-Light" font-size="11.0" fill="#8F8F8F" transform="matrix(1.00, 0.00, -0.00, -1.00, 533.8, 87.0)">a</text><text xml:space="preserve" font-family="GillSans-Light" font-size="11.0" fill="#8F8F8F" transform="matrix(1.00, 0.00, -0.00, -1.00, 538.5, 87.0)">t</text><text xml:space="preserve" font-family="GillSans-Light" font-size="11.0" fill="#8F8F8F" transform="matrix(1.00, 0.00, -0.00, -1.00, 541.8, 87.0)">e</text><text xml:space="preserve" font-family="GillSans-Light" font-size="11.0" fill="#8F8F8F" transform="matrix(1.00, 0.00, -0.00, -1.00, 547.1, 87.0)">g</text><text xml:space="preserve" font-family="GillSans-Light" font-size="11.0" fill="#8F8F8F" transform="matrix(1.00, 0.00, -0.00, -1.00, 551.8, 87.0)">o</text><text xml:space="preserve" font-family="GillSans-Light" font-size="11.0" fill="#8F8F8F" transform="matrix(1.00, 0.00, -0.00, -1.00, 557.8, 87.0)">r</text><text xml:space="preserve" font-family="GillSans-Light" font-size="11.0" fill="#8F8F8F" transform="matrix(1.00, 0.00, -0.00, -1.00, 561.7, 87.0)">i</text><text xml:space="preserve" font-family="GillSans-Light" font-size="11.0" fill="#8F8F8F" transform="matrix(1.00, 0.00, -0.00, -1.00, 563.8, 87.0)">e</text><text xml:space="preserve" font-family="GillSans-Light" font-size="11.0" fill="#8F8F8F" transform="matrix(1.00, 0.00, -0.00, -1.00, 569.0, 87.0)"> </text><text xml:space="preserve" font-family="GillSans-Light" font-size="11.0" fill="#8F8F8F" transform="matrix(1.00, 0.00, -0.00, -1.00, 572.1, 87.0)">2</text></g></g><g><clipPath id="clip-71"><path d="M 418.3 101.7 L 597.8 101.7 L 597.8 276.2 L 418.3 276.2 Z M 418.3 101.7 "></path></clipPath><g clip-path="url(#clip-71)"><path d="M 466.0 185.0 L 486.0 185.0 L 486.0 102.0 L 466.0 102.0 Z M 466.0 185.0 " fill="#9A9671"></path></g></g><g><clipPath id="clip-72"><path d="M 418.3 101.7 L 597.8 101.7 L 597.8 276.2 L 418.3 276.2 Z M 418.3 101.7 "></path></clipPath><g clip-path="url(#clip-72)"><path d="M 556.0 255.0 L 576.0 255.0 L 576.0 102.0 L 556.0 102.0 Z M 556.0 255.0 " fill="#9A9671"></path></g></g><g><clipPath id="clip-73"><path d="M 418.3 101.7 L 597.8 101.7 L 597.8 276.2 L 418.3 276.2 Z M 418.3 101.7 "></path></clipPath><g clip-path="url(#clip-73)"><path d="M 440.0 252.0 L 460.0 252.0 L 460.0 102.0 L 440.0 102.0 Z M 440.0 252.0 " fill="#77AAB3"></path></g></g><g><clipPath id="clip-74"><path d="M 418.3 101.7 L 597.8 101.7 L 597.8 276.2 L 418.3 276.2 Z M 418.3 101.7 "></path></clipPath><g clip-path="url(#clip-74)"><path d="M 530.0 189.0 L 550.0 189.0 L 550.0 102.0 L 530.0 102.0 Z M 530.0 189.0 " fill="#77AAB3"></path></g></g><path d="M 408.0 60.0 L 604.0 60.0 L 604.0 47.0 L 408.0 47.0 Z M 408.0 60.0 " fill="#000000" fill-opacity="0.00"></path><path d="M 423.0 59.0 L 433.0 59.0 L 433.0 49.0 L 423.0 49.0 Z M 423.0 59.0 " fill="#77AAB3"></path><text xml:space="preserve" font-family="GillSans-Light" font-size="11.0" fill="#8F8F8F" transform="matrix(1.00, 0.00, -0.00, -1.00, 440.0, 50.0)">D</text><text xml:space="preserve" font-family="GillSans-Light" font-size="11.0" fill="#8F8F8F" transform="matrix(1.00, 0.00, -0.00, -1.00, 448.1, 50.0)">a</text><text xml:space="preserve" font-family="GillSans-Light" font-size="11.0" fill="#8F8F8F" transform="matrix(1.00, 0.00, -0.00, -1.00, 452.8, 50.0)">t</text><text xml:space="preserve" font-family="GillSans-Light" font-size="11.0" fill="#8F8F8F" transform="matrix(1.00, 0.00, -0.00, -1.00, 456.2, 50.0)">e</text><text xml:space="preserve" font-family="GillSans-Light" font-size="11.0" fill="#8F8F8F" transform="matrix(1.00, 0.00, -0.00, -1.00, 461.4, 50.0)">n</text><text xml:space="preserve" font-family="GillSans-Light" font-size="11.0" fill="#8F8F8F" transform="matrix(1.00, 0.00, -0.00, -1.00, 466.8, 50.0)">r</text><text xml:space="preserve" font-family="GillSans-Light" font-size="11.0" fill="#8F8F8F" transform="matrix(1.00, 0.00, -0.00, -1.00, 470.5, 50.0)">e</text><text xml:space="preserve" font-family="GillSans-Light" font-size="11.0" fill="#8F8F8F" transform="matrix(1.00, 0.00, -0.00, -1.00, 475.8, 50.0)">i</text><text xml:space="preserve" font-family="GillSans-Light" font-size="11.0" fill="#8F8F8F" transform="matrix(1.00, 0.00, -0.00, -1.00, 477.8, 50.0)">h</text><text xml:space="preserve" font-family="GillSans-Light" font-size="11.0" fill="#8F8F8F" transform="matrix(1.00, 0.00, -0.00, -1.00, 483.2, 50.0)">e</text><text xml:space="preserve" font-family="GillSans-Light" font-size="11.0" fill="#8F8F8F" transform="matrix(1.00, 0.00, -0.00, -1.00, 488.5, 50.0)"> </text><text xml:space="preserve" font-family="GillSans-Light" font-size="11.0" fill="#8F8F8F" transform="matrix(1.00, 0.00, -0.00, -1.00, 491.5, 50.0)">1</text><path d="M 513.0 59.0 L 523.0 59.0 L 523.0 49.0 L 513.0 49.0 Z M 513.0 59.0 " fill="#9A9671"></path><text xml:space="preserve" font-family="GillSans-Light" font-size="11.0" fill="#8F8F8F" transform="matrix(1.00, 0.00, -0.00, -1.00, 531.0, 50.0)">D</text><text xml:space="preserve" font-family="GillSans-Light" font-size="11.0" fill="#8F8F8F" transform="matrix(1.00, 0.00, -0.00, -1.00, 539.1, 50.0)">a</text><text xml:space="preserve" font-family="GillSans-Light" font-size="11.0" fill="#8F8F8F" transform="matrix(1.00, 0.00, -0.00, -1.00, 543.8, 50.0)">t</text><text xml:space="preserve" font-family="GillSans-Light" font-size="11.0" fill="#8F8F8F" transform="matrix(1.00, 0.00, -0.00, -1.00, 547.2, 50.0)">e</text><text xml:space="preserve" font-family="GillSans-Light" font-size="11.0" fill="#8F8F8F" transform="matrix(1.00, 0.00, -0.00, -1.00, 552.4, 50.0)">n</text><text xml:space="preserve" font-family="GillSans-Light" font-size="11.0" fill="#8F8F8F" transform="matrix(1.00, 0.00, -0.00, -1.00, 557.8, 50.0)">r</text><text xml:space="preserve" font-family="GillSans-Light" font-size="11.0" fill="#8F8F8F" transform="matrix(1.00, 0.00, -0.00, -1.00, 561.5, 50.0)">e</text><text xml:space="preserve" font-family="GillSans-Light" font-size="11.0" fill="#8F8F8F" transform="matrix(1.00, 0.00, -0.00, -1.00, 566.8, 50.0)">i</text><text xml:space="preserve" font-family="GillSans-Light" font-size="11.0" fill="#8F8F8F" transform="matrix(1.00, 0.00, -0.00, -1.00, 568.8, 50.0)">h</text><text xml:space="preserve" font-family="GillSans-Light" font-size="11.0" fill="#8F8F8F" transform="matrix(1.00, 0.00, -0.00, -1.00, 574.2, 50.0)">e</text><text xml:space="preserve" font-family="GillSans-Light" font-size="11.0" fill="#8F8F8F" transform="matrix(1.00, 0.00, -0.00, -1.00, 579.5, 50.0)"> </text><text xml:space="preserve" font-family="GillSans-Light" font-size="11.0" fill="#8F8F8F" transform="matrix(1.00, 0.00, -0.00, -1.00, 582.5, 50.0)">2</text><g><clipPath id="clip-75"><path d="M 96.6 157.3 L 265.1 157.3 L 265.1 325.8 L 96.6 325.8 Z M 96.6 157.3 "></path></clipPath><g clip-path="url(#clip-75)"><image xlink:href="../../BDC95B68-954C-4367-BEA9-2A858C7660A5/assets/B8B4B6DE16727754E7E4153DC89CB541.png" width="169.00" height="169.00" transform="matrix(0.99, 0.00, -0.00, -1.00, 97.0, 326.0)"></image></g></g><g><clipPath id="clip-76"><path d="M 79.6 119.7 L 282.2 119.7 L 282.2 161.3 L 79.6 161.3 Z M 79.6 119.7 "></path></clipPath><g clip-path="url(#clip-76)"><text xml:space="preserve" font-family="GillSans-Light" font-size="24.0" fill="#535353" transform="matrix(1.00, 0.00, -0.00, -1.00, 105.0, 132.0)">O</text><text xml:space="preserve" font-family="GillSans-Light" font-size="24.0" fill="#535353" transform="matrix(1.00, 0.00, -0.00, -1.00, 124.8, 132.0)">P</text><text xml:space="preserve" font-family="GillSans-Light" font-size="24.0" fill="#535353" transform="matrix(1.00, 0.00, -0.00, -1.00, 137.0, 132.0)">T</text><text xml:space="preserve" font-family="GillSans-Light" font-size="24.0" fill="#535353" transform="matrix(1.00, 0.00, -0.00, -1.00, 150.8, 132.0)">I</text><text xml:space="preserve" font-family="GillSans-Light" font-size="24.0" fill="#535353" transform="matrix(1.00, 0.00, -0.00, -1.00, 155.7, 132.0)">M</text><text xml:space="preserve" font-family="GillSans-Light" font-size="24.0" fill="#535353" transform="matrix(1.00, 0.00, -0.00, -1.00, 174.5, 132.0)">I</text><text xml:space="preserve" font-family="GillSans-Light" font-size="24.0" fill="#535353" transform="matrix(1.00, 0.00, -0.00, -1.00, 179.5, 132.0)">E</text><text xml:space="preserve" font-family="GillSans-Light" font-size="24.0" fill="#535353" transform="matrix(1.00, 0.00, -0.00, -1.00, 191.2, 132.0)">R</text><text xml:space="preserve" font-family="GillSans-Light" font-size="24.0" fill="#535353" transform="matrix(1.00, 0.00, -0.00, -1.00, 205.0, 132.0)">U</text><text xml:space="preserve" font-family="GillSans-Light" font-size="24.0" fill="#535353" transform="matrix(1.00, 0.00, -0.00, -1.00, 221.8, 132.0)">N</text><text xml:space="preserve" font-family="GillSans-Light" font-size="24.0" fill="#535353" transform="matrix(1.00, 0.00, -0.00, -1.00, 240.3, 132.0)">G</text></g></g><image xlink:href="5750A6D16305ED316259099048B9938A.png" width="1024.00" height="300.00" transform="matrix(0.36, 0.00, -0.00, -0.36, 653.0, 250.0)"></image><text xml:space="preserve" font-family="GillSans-Light" font-size="36.0" fill="#535353" transform="matrix(1.00, 0.00, -0.00, -1.00, 756.0, 243.0)">W</text><text xml:space="preserve" font-family="GillSans-Light" font-size="36.0" fill="#535353" transform="matrix(1.00, 0.00, -0.00, -1.00, 790.6, 243.0)">e</text><text xml:space="preserve" font-family="GillSans-Light" font-size="36.0" fill="#535353" transform="matrix(1.00, 0.00, -0.00, -1.00, 807.8, 243.0)">b</text><text xml:space="preserve" font-family="GillSans-Light" font-size="36.0" fill="#535353" transform="matrix(1.00, 0.00, -0.00, -1.00, 826.2, 243.0)">s</text><text xml:space="preserve" font-family="GillSans-Light" font-size="36.0" fill="#535353" transform="matrix(1.00, 0.00, -0.00, -1.00, 838.9, 243.0)">e</text><text xml:space="preserve" font-family="GillSans-Light" font-size="36.0" fill="#535353" transform="matrix(1.00, 0.00, -0.00, -1.00, 856.2, 243.0)">r</text><text xml:space="preserve" font-family="GillSans-Light" font-size="36.0" fill="#535353" transform="matrix(1.00, 0.00, -0.00, -1.00, 870.7, 243.0)">v</text><text xml:space="preserve" font-family="GillSans-Light" font-size="36.0" fill="#535353" transform="matrix(1.00, 0.00, -0.00, -1.00, 885.5, 243.0)">e</text><text xml:space="preserve" font-family="GillSans-Light" font-size="36.0" fill="#535353" transform="matrix(1.00, 0.00, -0.00, -1.00, 902.7, 243.0)">r</text><path d="M 0.0 0.0 L 324.8 0.0 L 329.8 0.0 " fill="none" stroke="#3D4553" stroke-width="10.00" transform="matrix(-0.60, 0.80, 0.80, 0.60, 353.1, 106.0)"></path><path d="M 144.2 362.0 L 138.7 392.3 L 166.2 378.5 Z M 144.2 362.0 " fill="#3D4553"></path><path d="M 0.0 0.0 L 16.4 0.0 L 21.4 0.0 " fill="none" stroke="#3D4553" stroke-width="10.00" transform="matrix(-1.00, 0.00, 0.00, 1.00, 659.0, 255.9)"></path><path d="M 637.3 242.1 L 609.8 255.9 L 637.3 269.6 Z M 637.3 242.1 " fill="#3D4553"></path></g></svg>