<?xml version="1.0" encoding="UTF-8" standalone="no"?><svg xmlns="http://www.w3.org/2000/svg" xmlns:xlink="http://www.w3.org/1999/xlink" clip-rule="evenodd" stroke-miterlimit="4.00" viewBox="0 0 397 227"><desc>SVG generated by Keynote</desc><defs></defs><g transform="matrix(1.00, 0.00, -0.00, -1.00, 0.0, 227.0)"><path d="M 190.2 225.4 C 294.7 225.4 379.3 175.2 379.3 113.2 C 379.3 90.9 368.2 70.2 349.3 52.7 L 395.7 8.8 L 307.3 25.2 C 275.1 10.1 234.4 1.0 190.2 1.0 C 85.7 1.0 1.0 51.3 1.0 113.2 C 1.0 175.2 85.7 225.4 190.2 225.4 Z M 190.2 225.4 " fill="#3D4453"></path><g><clipPath id="clip-19"><path d="M -1.7 1.0 L 382.1 1.0 L 382.1 225.4 L -1.7 225.4 Z M -1.7 1.0 "></path></clipPath><g clip-path="url(#clip-19)"><text xml:space="preserve" font-family="GillSans-Light" font-size="36.0" fill="#FEFFFF" transform="matrix(1.00, 0.00, -0.00, -1.00, 56.0, 143.0)">W</text><text xml:space="preserve" font-family="GillSans-Light" font-size="36.0" fill="#FEFFFF" transform="matrix(1.00, 0.00, -0.00, -1.00, 93.1, 143.0)">i</text><text xml:space="preserve" font-family="GillSans-Light" font-size="36.0" fill="#FEFFFF" transform="matrix(1.00, 0.00, -0.00, -1.00, 99.9, 143.0)">e</text><text xml:space="preserve" font-family="GillSans-Light" font-size="36.0" fill="#FEFFFF" transform="matrix(1.00, 0.00, -0.00, -1.00, 117.1, 143.0)"> </text><text xml:space="preserve" font-family="GillSans-Light" font-size="36.0" fill="#FEFFFF" transform="matrix(1.00, 0.00, -0.00, -1.00, 127.1, 143.0)">e</text><text xml:space="preserve" font-family="GillSans-Light" font-size="36.0" fill="#FEFFFF" transform="matrix(1.00, 0.00, -0.00, -1.00, 144.4, 143.0)">f</text><text xml:space="preserve" font-family="GillSans-Light" font-size="36.0" fill="#FEFFFF" transform="matrix(1.00, 0.00, -0.00, -1.00, 153.0, 143.0)">ï¬</text><text xml:space="preserve" font-family="GillSans-Light" font-size="36.0" fill="#FEFFFF" transform="matrix(1.00, 0.00, -0.00, -1.00, 170.3, 143.0)">z</text><text xml:space="preserve" font-family="GillSans-Light" font-size="36.0" fill="#FEFFFF" transform="matrix(1.00, 0.00, -0.00, -1.00, 184.5, 143.0)">i</text><text xml:space="preserve" font-family="GillSans-Light" font-size="36.0" fill="#FEFFFF" transform="matrix(1.00, 0.00, -0.00, -1.00, 191.3, 143.0)">e</text><text xml:space="preserve" font-family="GillSans-Light" font-size="36.0" fill="#FEFFFF" transform="matrix(1.00, 0.00, -0.00, -1.00, 208.5, 143.0)">n</text><text xml:space="preserve" font-family="GillSans-Light" font-size="36.0" fill="#FEFFFF" transform="matrix(1.00, 0.00, -0.00, -1.00, 226.2, 143.0)">t</text><text xml:space="preserve" font-family="GillSans-Light" font-size="36.0" fill="#FEFFFF" transform="matrix(1.00, 0.00, -0.00, -1.00, 237.0, 143.0)"> </text><text xml:space="preserve" font-family="GillSans-Light" font-size="36.0" fill="#FEFFFF" transform="matrix(1.00, 0.00, -0.00, -1.00, 247.0, 143.0)">n</text><text xml:space="preserve" font-family="GillSans-Light" font-size="36.0" fill="#FEFFFF" transform="matrix(1.00, 0.00, -0.00, -1.00, 264.3, 143.0)">u</text><text xml:space="preserve" font-family="GillSans-Light" font-size="36.0" fill="#FEFFFF" transform="matrix(1.00, 0.00, -0.00, -1.00, 282.0, 143.0)">t</text><text xml:space="preserve" font-family="GillSans-Light" font-size="36.0" fill="#FEFFFF" transform="matrix(1.00, 0.00, -0.00, -1.00, 292.8, 143.0)">z</text><text xml:space="preserve" font-family="GillSans-Light" font-size="36.0" fill="#FEFFFF" transform="matrix(1.00, 0.00, -0.00, -1.00, 306.6, 143.0)">e</text><text xml:space="preserve" font-family="GillSans-Light" font-size="36.0" fill="#FEFFFF" transform="matrix(1.00, 0.00, -0.00, -1.00, 323.8, 143.0)"> </text><text xml:space="preserve" font-family="GillSans-Light" font-size="36.0" fill="#FEFFFF" transform="matrix(1.00, 0.00, -0.00, -1.00, 61.0, 102.0)">i</text><text xml:space="preserve" font-family="GillSans-Light" font-size="36.0" fill="#FEFFFF" transform="matrix(1.00, 0.00, -0.00, -1.00, 67.8, 102.0)">c</text><text xml:space="preserve" font-family="GillSans-Light" font-size="36.0" fill="#FEFFFF" transform="matrix(1.00, 0.00, -0.00, -1.00, 82.8, 102.0)">h</text><text xml:space="preserve" font-family="GillSans-Light" font-size="36.0" fill="#FEFFFF" transform="matrix(1.00, 0.00, -0.00, -1.00, 100.4, 102.0)"> </text><text xml:space="preserve" font-family="GillSans-Light" font-size="36.0" fill="#FEFFFF" transform="matrix(1.00, 0.00, -0.00, -1.00, 110.4, 102.0)">m</text><text xml:space="preserve" font-family="GillSans-Light" font-size="36.0" fill="#FEFFFF" transform="matrix(1.00, 0.00, -0.00, -1.00, 138.2, 102.0)">e</text><text xml:space="preserve" font-family="GillSans-Light" font-size="36.0" fill="#FEFFFF" transform="matrix(1.00, 0.00, -0.00, -1.00, 155.4, 102.0)">i</text><text xml:space="preserve" font-family="GillSans-Light" font-size="36.0" fill="#FEFFFF" transform="matrix(1.00, 0.00, -0.00, -1.00, 162.2, 102.0)">n</text><text xml:space="preserve" font-family="GillSans-Light" font-size="36.0" fill="#FEFFFF" transform="matrix(1.00, 0.00, -0.00, -1.00, 179.9, 102.0)"> </text><text xml:space="preserve" font-family="GillSans-Light" font-size="36.0" fill="#FEFFFF" transform="matrix(1.00, 0.00, -0.00, -1.00, 189.8, 102.0)">S</text><text xml:space="preserve" font-family="GillSans-Light" font-size="36.0" fill="#FEFFFF" transform="matrix(1.00, 0.00, -0.00, -1.00, 206.7, 102.0)">p</text><text xml:space="preserve" font-family="GillSans-Light" font-size="36.0" fill="#FEFFFF" transform="matrix(1.00, 0.00, -0.00, -1.00, 225.1, 102.0)">i</text><text xml:space="preserve" font-family="GillSans-Light" font-size="36.0" fill="#FEFFFF" transform="matrix(1.00, 0.00, -0.00, -1.00, 231.9, 102.0)">e</text><text xml:space="preserve" font-family="GillSans-Light" font-size="36.0" fill="#FEFFFF" transform="matrix(1.00, 0.00, -0.00, -1.00, 249.1, 102.0)">l</text><text xml:space="preserve" font-family="GillSans-Light" font-size="36.0" fill="#FEFFFF" transform="matrix(1.00, 0.00, -0.00, -1.00, 255.9, 102.0)">z</text><text xml:space="preserve" font-family="GillSans-Light" font-size="36.0" fill="#FEFFFF" transform="matrix(1.00, 0.00, -0.00, -1.00, 269.6, 102.0)">e</text><text xml:space="preserve" font-family="GillSans-Light" font-size="36.0" fill="#FEFFFF" transform="matrix(1.00, 0.00, -0.00, -1.00, 286.8, 102.0)">u</text><text xml:space="preserve" font-family="GillSans-Light" font-size="36.0" fill="#FEFFFF" transform="matrix(1.00, 0.00, -0.00, -1.00, 304.5, 102.0)">g</text><text xml:space="preserve" font-family="GillSans-Light" font-size="36.0" fill="#FEFFFF" transform="matrix(1.00, 0.00, -0.00, -1.00, 319.8, 102.0)"> </text><text xml:space="preserve" font-family="GillSans-Light" font-size="36.0" fill="#FEFFFF" transform="matrix(1.00, 0.00, -0.00, -1.00, 119.0, 61.0)">e</text><text xml:space="preserve" font-family="GillSans-Light" font-size="36.0" fill="#FEFFFF" transform="matrix(1.00, 0.00, -0.00, -1.00, 136.2, 61.0)">i</text><text xml:space="preserve" font-family="GillSans-Light" font-size="36.0" fill="#FEFFFF" transform="matrix(1.00, 0.00, -0.00, -1.00, 143.0, 61.0)">g</text><text xml:space="preserve" font-family="GillSans-Light" font-size="36.0" fill="#FEFFFF" transform="matrix(1.00, 0.00, -0.00, -1.00, 158.4, 61.0)">e</text><text xml:space="preserve" font-family="GillSans-Light" font-size="36.0" fill="#FEFFFF" transform="matrix(1.00, 0.00, -0.00, -1.00, 175.6, 61.0)">n</text><text xml:space="preserve" font-family="GillSans-Light" font-size="36.0" fill="#FEFFFF" transform="matrix(1.00, 0.00, -0.00, -1.00, 193.3, 61.0)">t</text><text xml:space="preserve" font-family="GillSans-Light" font-size="36.0" fill="#FEFFFF" transform="matrix(1.00, 0.00, -0.00, -1.00, 204.1, 61.0)">l</text><text xml:space="preserve" font-family="GillSans-Light" font-size="36.0" fill="#FEFFFF" transform="matrix(1.00, 0.00, -0.00, -1.00, 210.9, 61.0)">i</text><text xml:space="preserve" font-family="GillSans-Light" font-size="36.0" fill="#FEFFFF" transform="matrix(1.00, 0.00, -0.00, -1.00, 217.7, 61.0)">c</text><text xml:space="preserve" font-family="GillSans-Light" font-size="36.0" fill="#FEFFFF" transform="matrix(1.00, 0.00, -0.00, -1.00, 232.7, 61.0)">h</text><text xml:space="preserve" font-family="GillSans-Light" font-size="36.0" fill="#FEFFFF" transform="matrix(1.00, 0.00, -0.00, -1.00, 250.3, 61.0)">?</text></g></g></g></svg>