<?xml version="1.0" encoding="UTF-8" standalone="no"?><svg xmlns="http://www.w3.org/2000/svg" xmlns:xlink="http://www.w3.org/1999/xlink" clip-rule="evenodd" stroke-miterlimit="4.00" viewBox="0 0 200 205"><desc>SVG generated by Keynote</desc><defs></defs><g transform="matrix(1.00, 0.00, -0.00, -1.00, 0.0, 205.0)"><g><clipPath id="clip-44"><path d="M 15.6 36.3 L 184.1 36.3 L 184.1 204.8 L 15.6 204.8 Z M 15.6 36.3 "></path></clipPath><g clip-path="url(#clip-44)"><image xlink:href="B8B4B6DE16727754E7E4153DC89CB541.png" width="169.00" height="169.00" transform="matrix(0.99, 0.00, -0.00, -1.00, 16.0, 205.0)"></image></g></g><g><clipPath id="clip-45"><path d="M -1.4 -1.3 L 201.2 -1.3 L 201.2 40.3 L -1.4 40.3 Z M -1.4 -1.3 "></path></clipPath><g clip-path="url(#clip-45)"><text xml:space="preserve" font-family="GillSans-Light" font-size="24.0" fill="#535353" transform="matrix(1.00, 0.00, -0.00, -1.00, 24.0, 11.0)">O</text><text xml:space="preserve" font-family="GillSans-Light" font-size="24.0" fill="#535353" transform="matrix(1.00, 0.00, -0.00, -1.00, 43.8, 11.0)">P</text><text xml:space="preserve" font-family="GillSans-Light" font-size="24.0" fill="#535353" transform="matrix(1.00, 0.00, -0.00, -1.00, 56.0, 11.0)">T</text><text xml:space="preserve" font-family="GillSans-Light" font-size="24.0" fill="#535353" transform="matrix(1.00, 0.00, -0.00, -1.00, 69.8, 11.0)">I</text><text xml:space="preserve" font-family="GillSans-Light" font-size="24.0" fill="#535353" transform="matrix(1.00, 0.00, -0.00, -1.00, 74.7, 11.0)">M</text><text xml:space="preserve" font-family="GillSans-Light" font-size="24.0" fill="#535353" transform="matrix(1.00, 0.00, -0.00, -1.00, 93.5, 11.0)">I</text><text xml:space="preserve" font-family="GillSans-Light" font-size="24.0" fill="#535353" transform="matrix(1.00, 0.00, -0.00, -1.00, 98.5, 11.0)">E</text><text xml:space="preserve" font-family="GillSans-Light" font-size="24.0" fill="#535353" transform="matrix(1.00, 0.00, -0.00, -1.00, 110.2, 11.0)">R</text><text xml:space="preserve" font-family="GillSans-Light" font-size="24.0" fill="#535353" transform="matrix(1.00, 0.00, -0.00, -1.00, 124.0, 11.0)">U</text><text xml:space="preserve" font-family="GillSans-Light" font-size="24.0" fill="#535353" transform="matrix(1.00, 0.00, -0.00, -1.00, 140.8, 11.0)">N</text><text xml:space="preserve" font-family="GillSans-Light" font-size="24.0" fill="#535353" transform="matrix(1.00, 0.00, -0.00, -1.00, 159.3, 11.0)">G</text></g></g></g></svg>