<?xml version="1.0" encoding="UTF-8" standalone="no"?><svg xmlns="http://www.w3.org/2000/svg" xmlns:xlink="http://www.w3.org/1999/xlink" clip-rule="evenodd" stroke-miterlimit="4.00" viewBox="0 0 1014 878"><desc>SVG generated by Keynote</desc><defs></defs><g transform="matrix(1.00, 0.00, -0.00, -1.00, 0.0, 878.0)"><image xlink:href="../../293415CD-D1BA-41BB-8703-BAEDA9FFCE27/assets/00FBB2D96C50AB1911D2329DE29BFD19.png" width="1012.00" height="150.00" transform="matrix(1.00, 0.00, -0.00, -1.00, 1.1, 151.4)" opacity="0.75"></image><g><clipPath id="clip-15"><path d="M 121.0 802.0 L 893.0 802.0 L 893.0 76.0 L 121.0 76.0 Z M 121.1 801.6 "></path></clipPath><g clip-path="url(#clip-15)"><g><clipPath id="clip-16"><path d="M 762.0 801.5 C 761.4 801.4 758.1 801.2 754.6 801.2 C 748.6 801.2 748.0 800.9 746.2 796.9 L 744.3 793.0 L 724.0 792.0 C 707.1 791.7 703.5 792.1 702.9 793.8 C 702.3 795.3 700.6 795.6 695.2 794.9 C 691.4 794.5 687.7 793.4 687.0 792.5 C 685.4 790.5 681.6 789.9 644.6 786.6 C 628.6 785.1 606.7 782.7 596.0 781.3 C 585.2 779.9 570.7 778.0 563.7 777.2 C 556.7 776.3 546.8 774.3 541.7 772.6 C 536.6 770.9 528.8 769.0 524.4 768.5 C 516.1 767.5 514.4 766.4 514.4 762.0 C 514.4 760.6 510.0 755.2 504.6 750.0 C 497.7 743.2 491.4 734.9 482.5 720.8 C 474.9 708.9 469.5 701.5 468.8 702.3 C 468.0 703.0 469.7 713.5 473.0 728.7 C 480.8 764.4 483.9 781.1 483.1 782.4 C 481.8 784.6 470.0 787.9 463.4 787.9 C 455.0 787.9 434.6 785.7 417.4 783.0 C 408.2 781.5 403.1 780.1 401.7 778.5 C 399.3 775.9 397.3 766.2 377.7 665.9 C 364.7 599.3 350.7 523.7 344.4 486.7 C 342.5 475.3 340.6 465.6 340.2 465.0 C 339.9 464.4 338.2 464.1 336.6 464.5 C 335.0 464.8 330.3 465.4 326.2 465.9 C 319.3 466.6 318.4 466.4 317.0 463.8 C 316.1 462.2 311.7 434.9 307.1 403.2 C 302.5 371.5 298.4 345.0 297.9 344.2 C 297.3 343.2 294.0 344.1 288.1 346.8 C 281.1 350.0 276.4 351.1 267.3 351.8 C 260.8 352.2 255.2 352.1 254.9 351.6 C 254.5 351.0 253.2 351.1 252.0 351.7 C 248.3 353.7 225.5 355.0 224.5 353.4 C 223.9 352.4 222.1 352.5 218.7 353.9 C 216.0 354.9 207.5 356.1 199.8 356.4 C 192.1 356.8 180.4 357.7 173.9 358.5 C 165.4 359.5 161.6 359.5 160.4 358.5 C 159.1 357.4 157.8 357.4 155.8 358.5 C 153.2 359.9 129.0 362.8 127.9 361.8 C 127.6 361.5 121.3 321.6 121.1 318.4 C 121.1 318.0 124.8 315.3 129.4 312.5 C 134.0 309.7 145.6 302.5 155.1 296.5 C 164.6 290.5 181.1 280.2 191.7 273.6 L 211.1 262.0 L 224.6 261.0 C 240.0 260.2 238.7 259.0 240.5 273.2 C 242.0 285.1 242.5 285.6 253.1 285.0 C 262.1 284.5 262.3 284.5 262.7 287.8 C 263.0 290.9 263.6 291.2 268.7 291.0 C 271.7 290.8 275.5 290.0 277.1 289.2 C 279.6 287.9 279.9 286.9 279.2 282.8 C 278.8 280.1 278.0 274.8 277.6 271.1 C 276.8 264.4 276.8 264.2 281.4 261.4 C 284.3 259.6 288.2 258.5 292.0 258.5 C 295.3 258.5 298.3 258.2 298.7 257.8 C 299.1 257.4 297.9 253.5 296.1 249.0 C 290.9 236.1 289.7 225.7 291.8 212.8 C 292.8 206.8 293.2 195.5 293.0 187.7 L 293.0 173.5 L 300.0 167.6 C 306.6 161.9 339.6 139.3 346.0 136.1 C 350.4 133.8 365.8 134.1 368.2 136.5 C 370.4 138.7 373.5 151.5 372.8 155.4 C 372.2 159.0 381.6 161.2 384.6 158.3 C 386.1 156.7 386.3 155.6 385.2 153.6 C 382.6 148.6 384.8 145.7 394.5 141.3 C 407.3 135.6 410.9 135.8 414.3 142.5 C 415.8 145.3 417.5 148.0 418.1 148.3 C 418.6 148.7 425.3 149.1 433.0 149.4 C 444.7 149.7 447.1 149.4 448.2 147.5 C 449.3 145.8 449.1 144.3 447.4 141.4 C 444.0 135.7 444.5 132.5 449.8 126.7 C 453.5 122.6 454.3 120.7 453.6 118.1 C 452.6 113.8 453.7 112.2 467.7 99.3 C 482.8 85.2 493.5 80.2 512.2 78.3 C 519.6 77.6 525.9 76.8 526.2 76.5 C 526.4 76.3 528.1 76.6 529.9 77.3 C 531.7 78.0 535.5 78.5 538.4 78.5 C 545.7 78.5 549.9 80.5 551.9 84.8 C 553.4 87.8 554.8 88.7 559.3 89.2 C 567.0 90.1 570.8 93.5 569.7 98.5 C 569.0 101.5 569.5 102.7 571.9 104.4 C 573.6 105.6 576.3 106.5 578.0 106.5 C 582.1 106.5 585.7 112.1 583.8 115.7 C 583.0 117.2 582.3 119.4 582.3 120.7 C 582.3 123.9 587.6 129.2 590.6 129.2 C 594.7 129.2 595.8 134.5 592.8 139.5 C 589.6 144.7 590.4 148.1 595.8 151.9 C 598.2 153.7 599.7 155.9 599.7 157.9 C 599.7 159.6 600.2 161.4 600.8 161.7 C 601.4 162.1 605.9 160.0 610.8 157.0 C 620.8 150.9 631.9 147.7 638.6 149.1 C 642.1 149.8 643.3 150.9 644.5 154.6 C 646.0 159.0 646.4 159.2 653.5 159.9 C 662.8 160.7 665.1 163.3 664.1 171.9 C 663.7 175.2 664.4 182.5 665.5 188.2 C 666.7 193.8 667.7 200.5 667.7 203.0 C 667.7 205.5 668.4 208.2 669.4 209.0 C 670.3 209.8 676.2 211.1 682.4 212.0 L 693.7 213.6 L 715.0 205.1 C 731.6 198.4 736.4 196.0 736.8 193.9 C 737.1 192.4 739.0 189.4 741.1 187.2 C 743.8 184.4 744.7 182.3 744.2 180.3 C 743.2 176.5 744.9 174.2 757.7 162.4 C 771.1 150.2 781.2 145.6 799.4 143.6 C 808.4 142.7 812.3 142.7 813.4 143.8 C 814.2 144.6 818.0 145.2 821.9 145.2 C 826.6 145.2 829.4 145.9 830.6 147.3 C 835.4 153.2 837.3 154.5 840.6 154.5 C 845.6 154.5 849.0 158.1 849.0 163.5 C 849.0 168.0 849.4 168.3 855.9 169.8 C 861.0 170.9 862.6 174.5 860.6 179.8 C 859.1 183.8 859.2 184.3 862.7 187.3 C 864.8 189.1 867.3 190.5 868.3 190.5 C 871.2 190.5 872.2 195.8 869.8 198.4 C 866.5 202.0 867.2 206.4 871.6 210.3 C 876.6 214.6 876.7 218.0 872.1 222.7 L 868.7 226.4 L 871.5 230.0 C 875.3 234.8 875.0 237.6 870.3 243.0 C 867.1 246.6 866.5 248.4 867.1 251.5 C 867.7 254.5 867.1 256.4 864.4 259.5 L 860.9 263.7 L 867.0 272.4 C 881.0 292.4 889.2 317.0 892.0 347.0 C 893.2 360.2 893.2 364.6 891.9 366.6 C 891.0 368.1 890.3 373.9 890.3 380.2 C 890.3 391.5 887.3 412.3 885.3 415.0 C 884.6 415.9 883.0 420.3 881.7 424.8 C 880.4 429.4 878.9 433.0 878.5 432.8 C 877.3 432.5 859.1 451.0 859.4 452.2 C 859.7 453.3 855.9 454.3 849.6 454.8 C 845.7 455.2 845.6 455.3 845.2 464.5 C 844.7 477.0 845.3 478.7 852.9 487.2 C 870.2 506.2 872.9 524.6 864.2 565.0 C 850.9 627.0 836.4 674.5 812.0 735.5 C 800.2 765.0 798.8 767.8 795.7 768.2 C 792.7 768.5 792.4 769.1 792.7 773.2 C 793.0 775.8 792.8 779.9 792.3 782.3 C 791.3 787.7 785.7 790.5 775.8 790.5 C 769.4 790.5 769.1 790.7 766.1 796.2 C 764.4 799.3 762.5 801.7 762.0 801.5 Z M 765.5 765.0 L 775.3 732.6 C 793.7 672.2 805.0 623.5 813.1 569.9 C 815.3 555.4 816.5 546.1 816.6 538.7 C 816.9 537.3 816.8 535.9 816.6 534.8 C 816.2 526.3 813.9 520.1 809.3 510.4 C 805.7 502.6 802.1 495.9 801.4 495.5 C 799.8 494.5 790.2 498.9 787.9 501.6 C 785.3 504.7 787.1 506.9 790.7 505.1 C 792.4 504.2 793.1 504.1 792.3 504.9 C 791.6 505.7 786.2 508.3 780.3 510.7 C 774.5 513.1 768.9 515.6 768.0 516.3 C 767.8 516.4 767.7 516.8 767.5 517.0 L 766.0 517.0 L 767.0 518.1 C 766.3 520.1 766.7 523.2 769.0 528.1 C 772.7 536.3 772.4 538.1 766.3 543.6 C 762.0 547.4 760.3 550.3 758.1 557.8 C 754.2 570.8 751.2 576.3 744.9 582.2 C 737.6 588.9 737.1 590.0 733.0 608.9 L 729.4 625.2 L 734.5 632.8 C 740.1 641.2 742.0 647.1 739.8 649.7 C 738.2 651.6 741.3 661.8 744.5 665.4 C 749.6 671.1 748.0 681.8 740.4 693.1 C 738.0 696.7 735.6 701.2 735.1 703.1 C 733.9 707.9 725.7 716.7 721.4 717.8 C 719.4 718.3 715.9 720.3 713.6 722.3 C 711.3 724.3 708.5 726.5 707.3 727.2 C 704.6 728.9 695.3 761.4 697.0 763.1 C 697.7 763.7 713.4 763.9 731.9 764.0 L 765.5 765.0 Z M 667.4 757.2 C 670.8 757.2 672.0 755.8 670.2 753.7 C 669.2 752.5 669.4 748.3 670.9 738.8 C 672.1 731.5 673.0 724.6 673.0 723.5 C 673.0 722.4 670.5 720.0 667.3 718.1 C 659.6 713.6 649.3 702.7 648.5 698.3 C 648.2 696.4 647.3 693.6 646.5 692.1 C 645.7 690.6 644.2 685.7 643.1 681.2 C 641.4 673.9 641.4 672.4 643.4 667.2 C 645.2 662.3 645.3 660.5 644.0 656.9 C 642.9 653.8 642.8 650.8 643.8 646.5 C 646.3 635.0 647.8 631.9 650.5 631.9 C 652.1 631.9 653.5 630.5 654.3 628.2 C 655.0 626.2 656.6 622.7 657.9 620.5 C 664.4 608.8 664.4 610.2 657.7 601.4 C 653.4 595.8 650.4 593.2 647.6 592.5 C 645.4 592.0 641.0 589.7 637.8 587.3 C 634.6 584.8 630.7 582.4 629.1 581.9 C 624.2 580.4 617.3 573.4 616.3 569.1 C 615.2 564.1 611.9 558.7 601.9 545.8 C 597.7 540.2 593.5 533.9 592.8 531.8 C 591.3 527.6 587.1 524.3 585.8 526.4 C 585.3 527.1 592.7 555.8 602.2 590.1 C 611.7 624.4 622.8 665.1 627.0 680.5 C 636.7 716.4 640.2 726.8 645.7 736.0 C 651.1 744.7 663.8 757.2 667.4 757.2 Z M 434.5 739.9 C 437.3 740.0 440.0 739.4 440.5 738.0 C 441.1 736.5 436.0 708.7 425.7 656.5 C 424.7 651.4 423.6 644.9 423.1 642.0 C 422.7 639.1 421.4 632.5 420.3 627.3 C 419.2 622.1 417.4 613.1 416.3 607.2 C 415.1 600.9 410.9 588.7 406.1 577.2 C 397.0 555.7 396.0 554.1 393.0 555.9 C 391.1 557.0 391.5 560.8 397.3 590.8 C 416.1 689.5 425.6 735.4 427.4 737.5 C 428.7 739.0 431.7 739.8 434.5 739.9 Z M 588.1 735.1 C 593.6 735.1 597.1 735.0 597.4 734.7 C 597.9 734.1 597.0 730.4 595.2 726.5 C 585.6 704.7 561.6 639.0 539.7 574.4 C 531.8 551.2 525.0 531.5 524.5 530.8 C 523.9 529.9 522.2 529.8 519.4 530.6 C 512.9 532.5 503.2 532.1 500.3 529.9 C 496.9 527.3 496.6 527.4 493.3 531.0 C 486.8 537.9 490.9 541.9 504.1 541.5 C 514.2 541.2 517.0 542.4 517.0 547.3 C 517.0 552.0 513.6 554.6 507.0 554.6 C 503.8 554.6 500.8 555.2 500.4 555.9 C 499.9 556.7 490.3 557.2 476.3 557.2 C 458.1 557.2 452.8 557.6 452.3 559.0 C 451.9 560.0 456.5 573.0 462.5 588.0 C 485.6 645.9 519.2 713.6 531.1 726.4 L 537.9 733.7 L 567.1 734.7 C 575.2 735.0 582.6 735.1 588.1 735.1 Z M 613.4 474.0 C 613.9 474.0 614.5 474.0 615.3 473.9 C 617.3 473.6 619.5 473.3 620.1 473.3 C 620.6 473.2 622.3 470.5 623.7 467.1 L 626.4 460.9 L 622.4 456.4 C 620.2 453.8 618.3 451.2 618.3 450.5 C 618.3 449.9 615.1 447.2 611.1 444.7 C 604.7 440.6 603.7 439.3 601.8 432.7 C 600.3 427.6 598.6 424.6 596.0 423.0 C 589.5 418.7 587.1 417.2 584.3 416.0 C 582.8 415.4 578.8 412.7 575.3 410.0 C 568.0 404.5 568.8 404.7 566.0 406.9 C 564.1 408.3 563.9 409.7 564.8 415.5 C 565.4 419.3 565.6 423.0 565.1 423.7 C 564.7 424.3 560.3 427.1 555.4 429.9 L 546.3 434.8 L 553.1 442.2 C 556.8 446.3 561.3 452.5 563.1 456.1 C 565.2 460.2 568.4 463.8 571.7 465.9 C 577.0 469.2 577.2 469.3 584.9 467.3 C 599.2 463.5 607.9 464.9 610.3 471.2 C 611.1 473.1 611.8 473.9 613.4 474.0 Z M 442.0 457.5 C 444.2 457.6 448.9 457.2 454.2 456.3 C 464.0 454.6 468.4 454.5 474.2 455.6 C 482.5 457.1 484.7 456.2 482.5 452.1 C 481.3 449.9 480.1 449.5 476.5 450.1 C 472.9 450.7 471.4 450.2 469.5 448.0 C 468.2 446.5 465.6 445.2 463.7 445.3 C 459.2 445.4 439.1 455.8 440.5 457.3 C 440.7 457.4 441.2 457.5 442.0 457.5 Z M 160.0 333.1 C 163.5 333.1 163.8 330.5 162.3 321.7 C 161.4 316.7 160.3 312.1 159.9 311.6 C 159.4 311.1 157.7 311.8 155.9 313.1 C 153.0 315.3 152.9 315.9 153.9 324.0 C 155.0 331.6 155.5 332.6 158.2 333.0 C 158.9 333.1 159.5 333.1 160.0 333.1 Z M 197.2 307.6 C 197.9 307.6 198.8 307.4 200.1 307.2 C 207.0 305.7 207.7 304.4 206.2 294.5 C 205.4 289.8 204.4 285.4 203.9 284.9 C 203.4 284.4 200.8 285.4 198.1 287.2 C 193.3 290.5 193.2 290.7 193.9 297.6 C 194.7 305.4 195.0 307.5 197.2 307.6 Z M 197.2 307.6 "></path></clipPath><g clip-path="url(#clip-16)"><image xlink:href="../../293415CD-D1BA-41BB-8703-BAEDA9FFCE27/assets/BBE0F0144841DE2FCCAD1AA33371F094.png" width="856.00" height="768.00" transform="matrix(1.00, 0.00, -0.00, -1.00, 77.0, 817.0)"></image></g></g></g></g></g></svg>